<svg width="33" height="33" viewBox="0 0 33 33" fill="none" xmlns="http://www.w3.org/2000/svg">
<path d="M23.5 27.5H8.5C8.36739 27.5 8.24021 27.4473 8.14645 27.3536C8.05268 27.2598 8 27.1326 8 27V10C8 9.86739 8.05268 9.74021 8.14645 9.64645C8.24021 9.55268 8.36739 9.5 8.5 9.5H23.5C23.6326 9.5 23.7598 9.55268 23.8536 9.64645C23.9473 9.74021 24 9.86739 24 10V27C24 27.1326 23.9473 27.2598 23.8536 27.3536C23.7598 27.4473 23.6326 27.5 23.5 27.5ZM9 26.5H23V10.5H9V26.5Z" fill="white"/>
<path d="M22.5 29.5H9.5C9.10218 29.5 8.72064 29.342 8.43934 29.0607C8.15804 28.7794 8 28.3978 8 28V27C8 26.8674 8.05268 26.7402 8.14645 26.6464C8.24021 26.5527 8.36739 26.5 8.5 26.5H23.5C23.6326 26.5 23.7598 26.5527 23.8536 26.6464C23.9473 26.7402 24 26.8674 24 27V28C24 28.3978 23.842 28.7794 23.5607 29.0607C23.2794 29.342 22.8978 29.5 22.5 29.5ZM9 27.5V28C9 28.1326 9.05268 28.2598 9.14645 28.3536C9.24021 28.4473 9.36739 28.5 9.5 28.5H22.5C22.6326 28.5 22.7598 28.4473 22.8536 28.3536C22.9473 28.2598 23 28.1326 23 28V27.5H9Z" fill="white"/>
<path d="M26.5 24.5H23.5C23.3674 24.5 23.2402 24.4473 23.1464 24.3536C23.0527 24.2598 23 24.1326 23 24V13.5C23 13.3674 23.0527 13.2402 23.1464 13.1464C23.2402 13.0527 23.3674 13 23.5 13H26.5C26.8978 13 27.2794 13.158 27.5607 13.4393C27.842 13.7206 28 14.1022 28 14.5V23C28 23.3978 27.842 23.7794 27.5607 24.0607C27.2794 24.342 26.8978 24.5 26.5 24.5ZM24 23.5H26.5C26.6326 23.5 26.7598 23.4473 26.8536 23.3536C26.9473 23.2598 27 23.1326 27 23V14.5C27 14.3674 26.9473 14.2402 26.8536 14.1464C26.7598 14.0527 26.6326 14 26.5 14H24V23.5Z" fill="white"/>
<path d="M8.50033 14.446C8.38258 14.4458 8.26867 14.4041 8.17867 14.3282C8.08867 14.2523 8.02834 14.147 8.00833 14.031C7.83282 13.2152 7.449 12.4588 6.89424 11.8354C6.33949 11.2121 5.63274 10.743 4.84283 10.474C4.73049 10.4363 4.63521 10.3599 4.57395 10.2585C4.51269 10.157 4.48945 10.0372 4.50837 9.92018C4.52728 9.80321 4.58712 9.69675 4.67723 9.6198C4.76733 9.54284 4.88183 9.50039 5.00033 9.5H8.50033C8.56599 9.5 8.63101 9.51293 8.69167 9.53806C8.75233 9.56319 8.80745 9.60002 8.85388 9.64645C8.90031 9.69288 8.93714 9.748 8.96227 9.80866C8.98739 9.86932 9.00033 9.93434 9.00033 10V13.946C9.00077 14.0716 8.9539 14.1928 8.86903 14.2855C8.78416 14.3781 8.66753 14.4354 8.54233 14.446C8.52834 14.4467 8.51432 14.4467 8.50033 14.446ZM6.95683 10.5C7.35338 10.8217 7.70442 11.1958 8.00033 11.612V10.5H6.95683Z" fill="white"/>
<path d="M23.5 10.5H8.5C8.36739 10.5 8.24021 10.4473 8.14645 10.3536C8.05268 10.2598 8 10.1326 8 10V9C8 8.60218 8.15804 8.22064 8.43934 7.93934C8.72064 7.65804 9.10218 7.5 9.5 7.5H22.5C22.8978 7.5 23.2794 7.65804 23.5607 7.93934C23.842 8.22064 24 8.60218 24 9V10C24 10.1326 23.9473 10.2598 23.8536 10.3536C23.7598 10.4473 23.6326 10.5 23.5 10.5ZM9 9.5H23V9C23 8.86739 22.9473 8.74021 22.8536 8.64645C22.7598 8.55268 22.6326 8.5 22.5 8.5H9.5C9.36739 8.5 9.24021 8.55268 9.14645 8.64645C9.05268 8.74021 9 8.86739 9 9V9.5Z" fill="white"/>
<path d="M20 12.5H12C11.8674 12.5 11.7402 12.4473 11.6464 12.3536C11.5527 12.2598 11.5 12.1326 11.5 12V10C11.5 9.86739 11.5527 9.74021 11.6464 9.64645C11.7402 9.55268 11.8674 9.5 12 9.5H20C20.1326 9.5 20.2598 9.55268 20.3536 9.64645C20.4473 9.74021 20.5 9.86739 20.5 10V12C20.5 12.1326 20.4473 12.2598 20.3536 12.3536C20.2598 12.4473 20.1326 12.5 20 12.5ZM12.5 11.5H19.5V10.5H12.5V11.5Z" fill="white"/>
<path d="M20 24H12C11.8674 24 11.7402 23.9473 11.6464 23.8536C11.5527 23.7598 11.5 23.6326 11.5 23.5V21.5C11.5 21.3674 11.5527 21.2402 11.6464 21.1464C11.7402 21.0527 11.8674 21 12 21H20C20.1326 21 20.2598 21.0527 20.3536 21.1464C20.4473 21.2402 20.5 21.3674 20.5 21.5V23.5C20.5 23.6326 20.4473 23.7598 20.3536 23.8536C20.2598 23.9473 20.1326 24 20 24ZM12.5 23H19.5V22H12.5V23Z" fill="white"/>
<path d="M16 22C15.8674 22 15.7402 21.9473 15.6464 21.8536C15.5527 21.7598 15.5 21.6326 15.5 21.5V12C15.5 11.8674 15.5527 11.7402 15.6464 11.6464C15.7402 11.5527 15.8674 11.5 16 11.5C16.1326 11.5 16.2598 11.5527 16.3536 11.6464C16.4473 11.7402 16.5 11.8674 16.5 12V21.5C16.5 21.6326 16.4473 21.7598 16.3536 21.8536C16.2598 21.9473 16.1326 22 16 22Z" fill="white"/>
<path d="M18 6.5H14C13.6022 6.5 13.2206 6.34196 12.9393 6.06066C12.658 5.77936 12.5 5.39782 12.5 5C12.5 4.60218 12.658 4.22064 12.9393 3.93934C13.2206 3.65804 13.6022 3.5 14 3.5H18C18.3978 3.5 18.7794 3.65804 19.0607 3.93934C19.342 4.22064 19.5 4.60218 19.5 5C19.5 5.39782 19.342 5.77936 19.0607 6.06066C18.7794 6.34196 18.3978 6.5 18 6.5ZM14 4.5C13.8674 4.5 13.7402 4.55268 13.6464 4.64645C13.5527 4.74021 13.5 4.86739 13.5 5C13.5 5.13261 13.5527 5.25979 13.6464 5.35355C13.7402 5.44732 13.8674 5.5 14 5.5H18C18.1326 5.5 18.2598 5.44732 18.3536 5.35355C18.4473 5.25979 18.5 5.13261 18.5 5C18.5 4.86739 18.4473 4.74021 18.3536 4.64645C18.2598 4.55268 18.1326 4.5 18 4.5H14Z" fill="white"/>
<path d="M16 8.5C15.8674 8.5 15.7402 8.44732 15.6464 8.35355C15.5527 8.25979 15.5 8.13261 15.5 8V6C15.5 5.86739 15.5527 5.74021 15.6464 5.64645C15.7402 5.55268 15.8674 5.5 16 5.5C16.1326 5.5 16.2598 5.55268 16.3536 5.64645C16.4473 5.74021 16.5 5.86739 16.5 6V8C16.5 8.13261 16.4473 8.25979 16.3536 8.35355C16.2598 8.44732 16.1326 8.5 16 8.5Z" fill="white"/>
</svg>
