<svg width="33" height="33" viewBox="0 0 33 33" fill="none" xmlns="http://www.w3.org/2000/svg">
<path d="M18.9956 28.6156H13.5998C13.0038 28.6149 12.4323 28.3778 12.0108 27.9563C11.5894 27.5348 11.3523 26.9634 11.3516 26.3673V19.6226H21.2439V26.3673C21.2432 26.9634 21.0061 27.5348 20.5846 27.9563C20.1631 28.3778 19.5917 28.6149 18.9956 28.6156ZM12.2509 20.5219V26.3673C12.2509 26.7251 12.393 27.0682 12.646 27.3212C12.8989 27.5741 13.2421 27.7163 13.5998 27.7163H18.9956C19.3534 27.7163 19.6965 27.5741 19.9495 27.3212C20.2024 27.0682 20.3446 26.7251 20.3446 26.3673V20.5219H12.2509Z" fill="white"/>
<path d="M18.097 24.5686C17.3648 24.5158 16.6617 24.2599 16.0668 23.8298C15.6089 23.4891 15.0675 23.2782 14.4998 23.2196C13.6321 23.2433 12.7719 23.3869 11.9435 23.6463C11.8302 23.684 11.7066 23.675 11.5999 23.6215C11.4932 23.568 11.4121 23.4743 11.3745 23.361C11.3369 23.2477 11.3458 23.1241 11.3993 23.0174C11.4528 22.9107 11.5465 22.8296 11.6598 22.792C12.5793 22.5009 13.5356 22.3421 14.4998 22.3203C15.232 22.3731 15.9351 22.6289 16.53 23.0591C16.9879 23.3998 17.5293 23.6106 18.097 23.6693C18.9691 23.6036 19.8109 23.3203 20.5453 22.8455C20.5945 22.8127 20.6496 22.79 20.7075 22.7785C20.7654 22.767 20.8251 22.767 20.883 22.7786C20.9409 22.7902 20.996 22.813 21.045 22.8459C21.0941 22.8787 21.1362 22.9209 21.169 22.9701C21.2018 23.0192 21.2246 23.0743 21.236 23.1322C21.2475 23.1902 21.2475 23.2498 21.2359 23.3077C21.2243 23.3656 21.2015 23.4207 21.1686 23.4697C21.1358 23.5188 21.0936 23.561 21.0445 23.5937C20.1622 24.1668 19.147 24.5026 18.097 24.5686Z" fill="white"/>
<path d="M20.7954 25.4681H20.3457V20.0723H20.7954C21.5109 20.0723 22.1971 20.3565 22.7031 20.8625C23.209 21.3684 23.4933 22.0546 23.4933 22.7702C23.4933 23.4857 23.209 24.1719 22.7031 24.6779C22.1971 25.1838 21.5109 25.4681 20.7954 25.4681ZM21.245 21.0287V24.5117C21.6311 24.412 21.9731 24.1868 22.2173 23.8716C22.4615 23.5564 22.594 23.1689 22.594 22.7702C22.594 22.3714 22.4615 21.984 22.2173 21.6687C21.9731 21.3535 21.6311 21.1284 21.245 21.0287Z" fill="white"/>
<path d="M22.1445 20.5219H10.4536C10.3343 20.5219 10.2199 20.4745 10.1356 20.3902C10.0513 20.3058 10.0039 20.1915 10.0039 20.0722C10.0039 19.953 10.0513 19.8386 10.1356 19.7543C10.2199 19.6699 10.3343 19.6226 10.4536 19.6226H22.1445C22.2637 19.6226 22.3781 19.6699 22.4624 19.7543C22.5467 19.8386 22.5941 19.953 22.5941 20.0722C22.5941 20.1915 22.5467 20.3058 22.4624 20.3902C22.3781 20.4745 22.2637 20.5219 22.1445 20.5219Z" fill="white"/>
<path d="M21.2439 20.5221H11.3516V18.7235C11.3516 18.485 11.4463 18.2563 11.615 18.0876C11.7836 17.919 12.0124 17.8242 12.2509 17.8242H20.3446C20.5831 17.8242 20.8118 17.919 20.9805 18.0876C21.1491 18.2563 21.2439 18.485 21.2439 18.7235V20.5221ZM12.2509 19.6228H20.3446V18.7235H12.2509V19.6228Z" fill="white"/>
<path d="M20.3457 18.7231H12.252V11.9783C12.252 11.6206 12.3941 11.2775 12.6471 11.0245C12.9 10.7715 13.2431 10.6294 13.6009 10.6294H18.9967C19.3545 10.6294 19.6976 10.7715 19.9506 11.0245C20.2035 11.2775 20.3457 11.6206 20.3457 11.9783V18.7231ZM13.1513 17.8238H19.4464V11.9783C19.4464 11.8591 19.399 11.7447 19.3147 11.6604C19.2303 11.5761 19.116 11.5287 18.9967 11.5287H13.6009C13.4816 11.5287 13.3673 11.5761 13.283 11.6604C13.1986 11.7447 13.1513 11.8591 13.1513 11.9783V17.8238Z" fill="white"/>
<path d="M18.9974 11.529H13.6016V5.23389H18.9974V11.529ZM14.5009 10.6297H18.0981V6.13319H14.5009V10.6297Z" fill="white"/>
<path d="M19.2215 6.13302H13.3761C13.0779 6.13302 12.792 6.01458 12.5812 5.80377C12.3704 5.59295 12.252 5.30703 12.252 5.00889C12.252 4.71075 12.3704 4.42483 12.5812 4.21401C12.792 4.0032 13.0779 3.88477 13.3761 3.88477H19.2215C19.5197 3.88477 19.8056 4.0032 20.0164 4.21401C20.2272 4.42483 20.3457 4.71075 20.3457 5.00889C20.3457 5.30703 20.2272 5.59295 20.0164 5.80377C19.8056 6.01458 19.5197 6.13302 19.2215 6.13302ZM13.3761 4.78407C13.3165 4.78407 13.2593 4.80775 13.2171 4.84992C13.1749 4.89208 13.1513 4.94926 13.1513 5.00889C13.1513 5.06852 13.1749 5.1257 13.2171 5.16787C13.2593 5.21003 13.3165 5.23372 13.3761 5.23372H19.2215C19.2812 5.23372 19.3383 5.21003 19.3805 5.16787C19.4227 5.1257 19.4464 5.06852 19.4464 5.00889C19.4464 4.94926 19.4227 4.89208 19.3805 4.84992C19.3383 4.80775 19.2812 4.78407 19.2215 4.78407H13.3761Z" fill="white"/>
</svg>
