<svg width="32" height="33" viewBox="0 0 32 33" fill="none" xmlns="http://www.w3.org/2000/svg">
<path d="M20.3992 29.5H6.60173C6.45476 29.5 6.30959 29.4677 6.17656 29.4052C6.04353 29.3427 5.92589 29.2517 5.83204 29.1386C5.73818 29.0255 5.67041 28.8931 5.63354 28.7509C5.59667 28.6086 5.59161 28.4599 5.61873 28.3155L6.93123 21.3155C6.97426 21.0863 7.09607 20.8793 7.27557 20.7304C7.45508 20.5815 7.68099 20.5 7.91423 20.5H19.0842C19.3175 20.5 19.5434 20.5815 19.7229 20.7304C19.9024 20.8793 20.0242 21.0863 20.0672 21.3155L21.3797 28.3155C21.4068 28.4597 21.4018 28.6082 21.3651 28.7503C21.3284 28.8923 21.2608 29.0246 21.1672 29.1377C21.0736 29.2507 20.9563 29.3418 20.8236 29.4044C20.6909 29.467 20.546 29.4997 20.3992 29.5ZM7.91423 21.5L6.60173 28.5H20.3992L19.0842 21.5H7.91423Z" fill="white"/>
<path d="M17.6009 29.5H9.39844L11.0834 20.5H15.9134L17.6009 29.5ZM10.6009 28.5H16.3984L15.0834 21.5H11.9134L10.6009 28.5Z" fill="white"/>
<path d="M19 21.5H8V18.5H19V21.5ZM9 20.5H18V19.5H9V20.5Z" fill="white"/>
<path d="M21.0001 10.5H6.00011C5.89279 10.5 5.78832 10.4655 5.70212 10.4016C5.61593 10.3376 5.55259 10.2477 5.52148 10.145C5.49036 10.0423 5.49312 9.93227 5.52934 9.83124C5.56556 9.73022 5.63332 9.64354 5.72261 9.584L11.7226 5.584C11.8049 5.52937 11.9014 5.50016 12.0001 5.5H15.0001C15.0989 5.50016 15.1954 5.52937 15.2776 5.584L21.2776 9.584C21.3669 9.64354 21.4347 9.73022 21.4709 9.83124C21.5071 9.93227 21.5099 10.0423 21.4787 10.145C21.4476 10.2477 21.3843 10.3376 21.2981 10.4016C21.2119 10.4655 21.1074 10.5 21.0001 10.5ZM7.65011 9.5H19.3501L14.8501 6.5H12.1501L7.65011 9.5Z" fill="white"/>
<path d="M17.8075 10.5H9.18945L11.6895 5.5H15.3075L17.8075 10.5ZM10.8075 9.5H16.1895L14.6895 6.5H12.3075L10.8075 9.5Z" fill="white"/>
<path d="M14.9985 6.5H11.9985C11.8871 6.5 11.7788 6.46275 11.6909 6.39417C11.603 6.3256 11.5406 6.22962 11.5135 6.1215L11.1685 4.7425C11.1317 4.59504 11.1289 4.44112 11.1604 4.29244C11.192 4.14376 11.257 4.00422 11.3506 3.88444C11.4441 3.76465 11.5638 3.66777 11.7004 3.60116C11.837 3.53454 11.987 3.49995 12.139 3.5H14.858C15.01 3.49995 15.16 3.53454 15.2966 3.60116C15.4333 3.66777 15.5529 3.76465 15.6465 3.88444C15.74 4.00422 15.805 4.14376 15.8366 4.29244C15.8681 4.44112 15.8654 4.59504 15.8285 4.7425L15.4835 6.1215C15.4564 6.22962 15.394 6.3256 15.3061 6.39417C15.2183 6.46275 15.11 6.5 14.9985 6.5ZM12.389 5.5H14.608L14.858 4.5H12.139L12.389 5.5Z" fill="white"/>
<path d="M19.0759 19.5H7.9229C7.68598 19.5007 7.45656 19.4169 7.27585 19.2637C7.09514 19.1105 6.97496 18.8978 6.9369 18.664L6.1149 13.736C4.8774 10.765 3.47591 10.5 3.46191 10.495C3.33752 10.4744 3.22533 10.408 3.14735 10.309C3.06937 10.2099 3.03123 10.0852 3.0404 9.9595C3.04912 9.83498 3.10465 9.71838 3.19583 9.63314C3.28701 9.54789 3.40708 9.50033 3.5319 9.5H20.9994C21.072 9.50002 21.1438 9.51587 21.2097 9.54643C21.2756 9.57699 21.334 9.62155 21.3809 9.67698C21.4278 9.73242 21.4621 9.79742 21.4814 9.86745C21.5006 9.93748 21.5044 10.0109 21.4924 10.0825L20.0624 18.664C20.0236 18.8976 19.9031 19.1098 19.7225 19.2629C19.5418 19.416 19.3127 19.5 19.0759 19.5ZM5.2654 10.5C6.04709 11.3434 6.65711 12.331 7.0614 13.4075C7.0755 13.4423 7.08589 13.4785 7.0924 13.5155L7.9229 18.5H19.0759L20.4089 10.5H5.2654Z" fill="white"/>
<path d="M15.9242 19.5H11.0772L9.41016 9.5H17.5912L15.9242 19.5ZM11.9242 18.5H15.0772L16.4102 10.5H10.5912L11.9242 18.5Z" fill="white"/>
<path d="M25.6295 19.5H23.0295C22.7684 19.4985 22.5181 19.3956 22.3315 19.2131C22.1449 19.0305 22.0366 18.7825 22.0295 18.5215L22.008 17.5215C22.0051 17.3884 22.0289 17.256 22.0778 17.1322C22.1268 17.0084 22.2 16.8956 22.2932 16.8005C22.3863 16.7053 22.4975 16.6297 22.6203 16.5781C22.743 16.5265 22.8748 16.5 23.008 16.5H24.108L24.9485 13.1895L24.2835 12.5L20.666 12.472C20.5334 12.4715 20.4064 12.4183 20.313 12.3241C20.2196 12.23 20.1674 12.1026 20.168 11.97C20.1685 11.8374 20.2217 11.7104 20.3158 11.617C20.41 11.5236 20.5374 11.4715 20.67 11.472H20.674L24.2915 11.5C24.4251 11.5013 24.5571 11.5292 24.6797 11.5821C24.8024 11.6349 24.9133 11.7118 25.006 11.808L25.668 12.5C25.7859 12.6219 25.8708 12.7719 25.9146 12.9358C25.9583 13.0997 25.9595 13.272 25.918 13.4365L25.0785 16.745C25.024 16.9607 24.8991 17.1521 24.7236 17.2888C24.5481 17.4256 24.332 17.4999 24.1095 17.5H23.0095L23.031 18.5H25.631L27.4445 12.606L25.758 10.5H20.9985C20.8659 10.5 20.7387 10.4473 20.6449 10.3536C20.5512 10.2598 20.4985 10.1326 20.4985 10C20.4985 9.86739 20.5512 9.74022 20.6449 9.64645C20.7387 9.55268 20.8659 9.5 20.9985 9.5H25.7585C25.9085 9.49965 26.0566 9.53324 26.1918 9.59827C26.3269 9.6633 26.4456 9.75808 26.539 9.8755L28.224 11.981C28.3255 12.1085 28.3944 12.2588 28.4249 12.4189C28.4553 12.579 28.4462 12.7442 28.3985 12.9L26.5845 18.795C26.5223 18.9996 26.3958 19.1787 26.2238 19.3057C26.0517 19.4327 25.8433 19.5008 25.6295 19.5Z" fill="white"/>
</svg>
