<svg width="16" height="16" viewBox="0 0 16 16" fill="none" xmlns="http://www.w3.org/2000/svg">
<path fill-rule="evenodd" clip-rule="evenodd" d="M2.13454 8.07158C2.13495 8.07256 2.13537 8.07354 2.13578 8.07452C2.18194 8.18373 2.25431 8.34339 2.35626 8.53686C2.56065 8.92471 2.88113 9.44314 3.3433 9.96276C4.26214 10.9958 5.7376 12.0335 8.00864 12.0706C10.2689 12.1076 11.7373 11.076 12.6547 10.026C13.1164 9.4975 13.4371 8.96502 13.6419 8.5647C13.744 8.36506 13.8166 8.19981 13.8629 8.08648C13.8645 8.08253 13.8661 8.07865 13.8676 8.07483C13.8659 8.07029 13.8641 8.06565 13.8623 8.06093C13.8173 7.94535 13.7467 7.77677 13.6467 7.57291C13.4463 7.1641 13.1308 6.61955 12.6723 6.07672C11.7613 4.9981 10.2915 3.92871 8.00046 3.92871C5.70942 3.92871 4.23964 4.9981 3.3286 6.07672C2.8701 6.61955 2.55465 7.1641 2.35421 7.57291C2.25425 7.77677 2.18364 7.94535 2.13867 8.06093C2.13727 8.06453 2.13589 8.06808 2.13454 8.07158ZM14.4005 8.07946C14.8776 7.93004 14.8775 7.9298 14.8775 7.92954L14.8773 7.92892L14.8768 7.92738L14.8754 7.92302L14.8709 7.9093C14.8672 7.89798 14.8619 7.88233 14.855 7.86265C14.8413 7.8233 14.8212 7.76775 14.7942 7.69833C14.7402 7.55957 14.6584 7.3648 14.5446 7.13266C14.3175 6.66945 13.9598 6.05131 13.4363 5.43145C12.3832 4.1847 10.653 2.92871 8.00046 2.92871C5.34791 2.92871 3.6177 4.1847 2.56464 5.43145C2.04108 6.05131 1.68345 6.66945 1.45633 7.13266C1.34251 7.3648 1.26072 7.55957 1.20673 7.69833C1.17972 7.76775 1.15961 7.8233 1.14589 7.86265C1.13903 7.88233 1.13376 7.89798 1.13002 7.9093L1.12555 7.92302L1.12415 7.92738L1.12366 7.92892L1.12347 7.92954C1.12339 7.9298 1.12331 7.93004 1.60046 8.07946L1.12331 7.93004L1.07422 8.08681L1.12767 8.24216L1.60046 8.07946C1.12767 8.24216 1.12776 8.2424 1.12785 8.24266L1.12806 8.24327L1.12858 8.24479L1.13007 8.24903L1.1348 8.26225C1.13874 8.27314 1.14426 8.28813 1.15143 8.30695C1.16576 8.34458 1.18668 8.39759 1.21466 8.4638C1.27059 8.59615 1.35495 8.78174 1.47159 9.00307C1.70438 9.44482 2.06852 10.0342 2.59609 10.6274C3.65674 11.8199 5.38128 13.0278 7.99229 13.0705C10.6141 13.1133 12.3457 11.8994 13.4078 10.6839C13.9358 10.0796 14.2998 9.47437 14.5321 9.02014C14.6486 8.79251 14.7328 8.60128 14.7885 8.46495C14.8164 8.39674 14.8372 8.34213 14.8515 8.30342C14.8586 8.28406 14.8641 8.26866 14.868 8.2575L14.8726 8.24399L14.8741 8.23968L14.8746 8.23815L14.8748 8.23755C14.8749 8.23729 14.875 8.23705 14.4005 8.07946ZM14.4005 8.07946L14.875 8.23705L14.9258 8.08397L14.8776 7.93004L14.4005 8.07946ZM8.00046 6.96268C7.37999 6.96268 6.90046 7.44865 6.90046 8.01958C6.90046 8.59051 7.37999 9.07649 8.00046 9.07649C8.62093 9.07649 9.10046 8.59051 9.10046 8.01958C9.10046 7.44865 8.62093 6.96268 8.00046 6.96268ZM5.90046 8.01958C5.90046 6.8708 6.85362 5.96268 8.00046 5.96268C9.1473 5.96268 10.1005 6.8708 10.1005 8.01958C10.1005 9.16836 9.1473 10.0765 8.00046 10.0765C6.85362 10.0765 5.90046 9.16836 5.90046 8.01958ZM2.0729 7.91575L2.07291 7.91576Z" fill="#878787"/>
</svg>
