<svg width="24" height="24" viewBox="0 0 24 24" fill="none" xmlns="http://www.w3.org/2000/svg">
<g clip-path="url(#clip0_893_5129)">
<path d="M3.99949 10.0001C2.89449 10.0001 1.99949 9.10511 1.99949 8.00011V5.82911C1.49449 5.65111 1.04149 5.33811 0.689489 4.91411C0.117489 4.22411 -0.114511 3.31611 0.0534892 2.42511C0.262489 1.31811 1.13949 0.383113 2.23549 0.0991129C2.98649 -0.0948871 3.74149 0.000112891 4.39549 0.357113C5.40349 -0.111887 6.59549 -0.111887 7.60349 0.356113C8.25749 0.000112891 9.01349 -0.0978871 9.76249 0.0991129C10.8585 0.383113 11.7365 1.31911 11.9445 2.42511C12.1125 3.31711 11.8815 4.22411 11.3085 4.91411C10.9565 5.33811 10.5035 5.65111 9.99849 5.82911V8.00011C9.99849 9.10511 9.10349 10.0001 7.99849 10.0001H3.99949ZM23.9995 5.00011V14.5151C23.9995 14.6781 23.9865 14.8391 23.9755 15.0001H17.9995C16.3455 15.0001 14.9995 16.3461 14.9995 18.0001V23.9761C14.8385 23.9871 13.6775 24.0001 13.5145 24.0001H8.99949C6.24249 24.0001 3.99949 21.7571 3.99949 19.0001V12.0001H7.99949C7.99949 12.5531 8.44749 13.0001 8.99949 13.0001H18.9995C19.5525 13.0001 19.9995 12.5531 19.9995 12.0001C19.9995 11.4471 19.5525 11.0001 18.9995 11.0001H10.6175C11.2145 10.4791 11.6525 9.79011 11.8575 9.00011H18.9995C19.5525 9.00011 19.9995 8.55311 19.9995 8.00011C19.9995 7.44711 19.5525 7.00011 18.9995 7.00011H11.9995C12.3115 6.76611 12.5975 6.49411 12.8495 6.19011C13.8035 5.04011 14.1895 3.53211 13.9105 2.05411C13.7675 1.29411 13.4425 0.598113 12.9915 -0.000887098H18.9995C21.7565 -0.000887098 23.9995 2.24311 23.9995 5.00011ZM11.9995 16.0001C11.9995 15.4471 11.5515 15.0001 10.9995 15.0001H8.99949C8.44749 15.0001 7.99949 15.4471 7.99949 16.0001C7.99949 16.5531 8.44749 17.0001 8.99949 17.0001H10.9995C11.5515 17.0001 11.9995 16.5531 11.9995 16.0001ZM17.9995 17.0001C17.4475 17.0001 16.9995 17.4491 16.9995 18.0001V24.0001L23.9995 17.0001H17.9995Z" fill="white"/>
</g>
<defs>
<clipPath id="clip0_893_5129">
<rect width="24" height="24" fill="white"/>
</clipPath>
</defs>
</svg>
