<svg width="25" height="24" viewBox="0 0 25 24" fill="none" xmlns="http://www.w3.org/2000/svg">
<g clip-path="url(#clip0_908_9647)">
<path d="M22.5 5.72398V1.99998C22.5 1.44798 22.053 0.999984 21.5 0.999984C20.947 0.999984 20.5 1.44798 20.5 1.99998V4.36598L15.297 0.854984C13.598 -0.291017 11.402 -0.291017 9.703 0.854984L2.703 5.57898C1.324 6.50998 0.5 8.05898 0.5 9.72398V19C0.5 21.757 2.743 24 5.5 24H7.5C8.053 24 8.5 23.552 8.5 23V14C8.5 13.449 8.948 13 9.5 13H15.5C16.052 13 16.5 13.449 16.5 14V23C16.5 23.552 16.947 24 17.5 24H19.5C22.257 24 24.5 21.757 24.5 19V9.72398C24.5 8.14298 23.756 6.66598 22.5 5.72398Z" fill="white"/>
</g>
<defs>
<clipPath id="clip0_908_9647">
<rect width="24" height="24" fill="white" transform="translate(0.5)"/>
</clipPath>
</defs>
</svg>
