<svg width="40" height="40" viewBox="0 0 40 40" fill="none" xmlns="http://www.w3.org/2000/svg">
<circle cx="20" cy="20" r="20" fill="#14463A"/>
<path d="M15.2806 26C15.1953 26 15.1206 25.968 15.0566 25.904C14.9926 25.84 14.9606 25.7653 14.9606 25.68C14.9606 25.6267 14.966 25.568 14.9766 25.504L18.9446 15.152C18.9873 15.0453 19.046 14.96 19.1206 14.896C19.1953 14.832 19.3073 14.8 19.4566 14.8H20.5446C20.6833 14.8 20.79 14.832 20.8646 14.896C20.95 14.96 21.014 15.0453 21.0566 15.152L25.0086 25.504C25.03 25.568 25.0406 25.6267 25.0406 25.68C25.0406 25.7653 25.0086 25.84 24.9446 25.904C24.8806 25.968 24.806 26 24.7206 26H23.9046C23.7766 26 23.6806 25.968 23.6166 25.904C23.5633 25.84 23.526 25.7813 23.5046 25.728L22.6246 23.456H17.3766L16.4966 25.728C16.486 25.7813 16.4486 25.84 16.3846 25.904C16.3206 25.968 16.2246 26 16.0966 26H15.2806ZM17.8406 22.08H22.1606L20.0006 16.4L17.8406 22.08Z" fill="white"/>
</svg>
