<svg width="40" height="40" viewBox="0 0 40 40" fill="none" xmlns="http://www.w3.org/2000/svg">
<circle cx="20" cy="20" r="19.5" fill="white" stroke="#E9E8E8"/>
<path fill-rule="evenodd" clip-rule="evenodd" d="M12.4789 19.1394C12.4789 19.1476 12.4789 19.1557 12.4789 19.1655C12.4789 19.1574 12.4789 19.1492 12.4789 19.1394ZM12.4789 19.1655C12.4789 19.1737 12.4789 19.1819 12.4757 19.1901C12.4757 19.1982 12.4724 19.2064 12.4708 19.213V19.2146C12.4692 19.2228 12.466 19.2293 12.4643 19.2375C12.3058 19.6903 11.0281 19.62 10.9473 19.2162C11.0055 14.2887 12.1053 10.2783 15.7071 8.04671C16.8085 7.36169 18.0248 7.01346 19.2523 7.00038C20.475 6.9873 21.7042 7.30938 22.8364 7.96823C23.4154 8.30502 23.9701 8.73172 24.4844 9.24508C24.9324 9.70611 25.2446 9.99058 25.9546 10.1426C28.2965 10.7165 30.0335 12.2238 30.8891 13.844C31.2514 14.529 31.4584 15.2418 31.4956 15.9203C31.5344 16.638 31.3824 17.323 31.0185 17.91C30.3796 18.9448 29.1197 19.6446 27.1401 19.6446V19.6413C26.8732 19.6413 26.642 19.486 26.5287 19.2604H26.5255C24.9082 19.7427 22.7183 19.3748 20.4961 19.0004C20.2907 18.9661 20.0836 18.9318 19.8734 18.8991C18.9175 16.8947 18.0037 14.5372 18.565 9.83527C18.5698 9.79603 18.5455 9.76006 18.5083 9.75026C18.4711 9.74045 18.4339 9.76006 18.4194 9.7944C16.4624 14.3851 16.4252 16.6625 17.0495 18.5819C15.4758 18.5051 13.9022 18.6407 12.4595 19.2473L12.4643 19.2358L12.4789 19.1639V19.1655ZM12.4757 19.1917C12.4757 19.1917 12.4724 19.2064 12.4708 19.213L12.4757 19.1917ZM26.4738 12.1437C27.2113 13.7279 27.6948 15.6767 27.8016 17.9933C27.8048 18.0538 27.8307 18.1061 27.8776 18.1454C27.9245 18.1846 27.9795 18.1993 28.0393 18.1895C28.9564 18.0456 29.5467 17.6729 29.8524 17.1775C30.061 16.8391 30.1484 16.4304 30.1241 15.9922C30.0982 15.5149 29.9462 15.0015 29.6793 14.4963C29.1278 13.45 28.1105 12.4625 26.7406 11.8642C26.6597 11.8298 26.5708 11.8478 26.511 11.9099C26.4495 11.9737 26.4349 12.0636 26.4721 12.1437H26.4738ZM28.1574 20.7645C28.0992 25.692 26.9994 29.7024 23.3976 31.934C22.2945 32.6174 21.0783 32.9672 19.8507 32.9803C18.628 32.9934 17.3988 32.6713 16.2667 32.0125C15.6877 31.6757 15.133 31.249 14.6186 30.7356C14.1706 30.2746 13.8585 29.9901 13.1485 29.8381C10.8066 29.2642 9.06954 27.7569 8.21396 26.1367C7.85168 25.4517 7.64466 24.7389 7.60746 24.0604C7.56865 23.3427 7.72068 22.6577 8.08458 22.0707C8.72343 21.0358 9.98334 20.3361 11.963 20.3361V20.3394C12.2298 20.3394 12.4627 20.4947 12.5743 20.7203H12.5776C14.0623 20.2773 16.0273 20.5519 18.0587 20.8887C19.0469 22.9094 20.1936 25.3994 20.0917 30.5362C20.0917 30.5754 20.1176 30.6081 20.1564 30.6146C20.1936 30.6212 20.2292 30.5999 20.2405 30.5639C21.9112 25.7803 21.6994 23.3263 20.9635 21.3154C22.8913 21.5149 24.8661 21.4805 26.6436 20.735L26.6387 20.7465C26.7972 20.2936 28.0749 20.3639 28.1558 20.7694L28.1574 20.7645ZM26.6242 20.8397C26.6242 20.8315 26.6242 20.8233 26.6242 20.8135C26.6242 20.8217 26.6242 20.8299 26.6242 20.8397ZM26.629 20.7873C26.629 20.7873 26.6323 20.7726 26.6339 20.7661C26.6323 20.7726 26.6306 20.7808 26.629 20.7873ZM26.6258 20.8135C26.6258 20.8053 26.6274 20.7972 26.629 20.789L26.6258 20.8135ZM26.6339 20.7645C26.6339 20.7645 26.6387 20.7497 26.6403 20.7416L26.6339 20.7645ZM12.6293 27.837C11.8918 26.2528 11.4082 24.304 11.3015 21.9874C11.2982 21.9269 11.2724 21.8745 11.2255 21.8353C11.1786 21.7961 11.1236 21.7814 11.0637 21.7912C10.1467 21.935 9.55636 22.3078 9.25068 22.8032C9.04204 23.1416 8.95471 23.5503 8.97897 23.9884C9.00485 24.4658 9.15688 24.9792 9.42374 25.4844C9.97525 26.5307 10.9926 27.5182 12.3624 28.1165C12.4433 28.1509 12.5323 28.1329 12.5921 28.0707C12.6536 28.007 12.6681 27.9171 12.6309 27.837H12.6293Z" fill="#1D1D1B"/>
<path d="M12.4789 19.1655C12.4789 19.1557 12.4789 19.1476 12.4789 19.1394C12.4789 19.1492 12.4789 19.1574 12.4789 19.1655ZM12.4789 19.1655C12.4789 19.1737 12.4789 19.1819 12.4757 19.1901C12.4757 19.1982 12.4724 19.2064 12.4708 19.213M12.4789 19.1655V19.1639L12.4643 19.2358L12.4595 19.2473C13.9022 18.6407 15.4758 18.5051 17.0495 18.5819C16.4252 16.6625 16.4624 14.3851 18.4194 9.7944C18.4339 9.76006 18.4711 9.74045 18.5083 9.75026C18.5455 9.76006 18.5698 9.79603 18.565 9.83527C18.0037 14.5372 18.9175 16.8947 19.8734 18.8991C20.0836 18.9318 20.2907 18.9661 20.4961 19.0004C22.7183 19.3748 24.9082 19.7427 26.5255 19.2604H26.5287C26.642 19.486 26.8732 19.6413 27.1401 19.6413V19.6446C29.1197 19.6446 30.3796 18.9448 31.0185 17.91C31.3824 17.323 31.5344 16.638 31.4956 15.9203C31.4584 15.2418 31.2514 14.529 30.8891 13.844C30.0335 12.2238 28.2965 10.7165 25.9546 10.1426C25.2446 9.99058 24.9324 9.70611 24.4844 9.24508C23.9701 8.73172 23.4154 8.30502 22.8364 7.96823C21.7042 7.30938 20.475 6.9873 19.2523 7.00038C18.0248 7.01346 16.8085 7.36169 15.7071 8.04671C12.1053 10.2783 11.0055 14.2887 10.9473 19.2162C11.0281 19.62 12.3058 19.6903 12.4643 19.2375C12.466 19.2293 12.4692 19.2228 12.4708 19.2146V19.213M12.4708 19.213C12.4724 19.2064 12.4757 19.1917 12.4757 19.1917L12.4708 19.213ZM26.4738 12.1437C27.2113 13.7279 27.6948 15.6767 27.8016 17.9933C27.8048 18.0538 27.8307 18.1061 27.8776 18.1454C27.9245 18.1846 27.9795 18.1993 28.0393 18.1895C28.9564 18.0456 29.5467 17.6729 29.8524 17.1775C30.061 16.8391 30.1484 16.4304 30.1241 15.9922C30.0982 15.5149 29.9462 15.0015 29.6793 14.4963C29.1278 13.45 28.1105 12.4625 26.7406 11.8642C26.6597 11.8298 26.5708 11.8478 26.511 11.9099C26.4495 11.9737 26.4349 12.0636 26.4721 12.1437H26.4738ZM28.1574 20.7645C28.0992 25.692 26.9994 29.7024 23.3976 31.934C22.2945 32.6174 21.0783 32.9672 19.8507 32.9803C18.628 32.9934 17.3988 32.6713 16.2667 32.0125C15.6877 31.6757 15.133 31.249 14.6186 30.7356C14.1706 30.2746 13.8585 29.9901 13.1485 29.8381C10.8066 29.2642 9.06954 27.7569 8.21396 26.1367C7.85168 25.4517 7.64466 24.7389 7.60746 24.0604C7.56865 23.3427 7.72068 22.6577 8.08458 22.0707C8.72343 21.0358 9.98334 20.3361 11.963 20.3361V20.3394C12.2298 20.3394 12.4627 20.4947 12.5743 20.7203H12.5776C14.0623 20.2773 16.0273 20.5519 18.0587 20.8887C19.0469 22.9094 20.1936 25.3994 20.0917 30.5362C20.0917 30.5754 20.1176 30.6081 20.1564 30.6146C20.1936 30.6212 20.2292 30.5999 20.2405 30.5639C21.9112 25.7803 21.6994 23.3263 20.9635 21.3154C22.8913 21.5149 24.8661 21.4805 26.6436 20.735L26.6387 20.7465C26.7972 20.2936 28.0749 20.3639 28.1558 20.7694L28.1574 20.7645ZM26.6242 20.8397C26.6242 20.8315 26.6242 20.8233 26.6242 20.8135C26.6242 20.8217 26.6242 20.8299 26.6242 20.8397ZM26.629 20.7873C26.629 20.7873 26.6323 20.7726 26.6339 20.7661C26.6323 20.7726 26.6306 20.7808 26.629 20.7873ZM26.6258 20.8135C26.6258 20.8053 26.6274 20.7972 26.629 20.789L26.6258 20.8135ZM26.6339 20.7645C26.6339 20.7645 26.6387 20.7497 26.6403 20.7416L26.6339 20.7645ZM12.6293 27.837C11.8918 26.2528 11.4082 24.304 11.3015 21.9874C11.2982 21.9269 11.2724 21.8745 11.2255 21.8353C11.1786 21.7961 11.1236 21.7814 11.0637 21.7912C10.1467 21.935 9.55636 22.3078 9.25068 22.8032C9.04204 23.1416 8.95471 23.5503 8.97897 23.9884C9.00485 24.4658 9.15688 24.9792 9.42374 25.4844C9.97525 26.5307 10.9926 27.5182 12.3624 28.1165C12.4433 28.1509 12.5323 28.1329 12.5921 28.0707C12.6536 28.007 12.6681 27.9171 12.6309 27.837H12.6293Z" stroke="#1D1D1B" stroke-width="0.57" stroke-miterlimit="22.93"/>
</svg>
