<svg width="127" height="36" viewBox="0 0 127 36" fill="none" xmlns="http://www.w3.org/2000/svg">
<g clip-path="url(#clip0_1078_7755)">
<path fill-rule="evenodd" clip-rule="evenodd" d="M7.32626 16.8864C7.32626 16.8971 7.32626 16.9078 7.32626 16.9206C7.32626 16.9099 7.32626 16.8992 7.32626 16.8864ZM7.32626 16.9206C7.32626 16.9313 7.32626 16.942 7.32207 16.9527C7.32207 16.9634 7.31787 16.9741 7.31578 16.9827V16.9848C7.31368 16.9955 7.30948 17.0041 7.30738 17.0148C7.1018 17.6074 5.44453 17.5154 5.33964 16.9869C5.41516 10.5385 6.84167 5.29022 11.5135 2.36979C12.9421 1.47333 14.5197 1.01762 16.1119 1.0005C17.6978 0.983385 19.2922 1.40487 20.7607 2.26709C21.5117 2.70783 22.2312 3.26625 22.8983 3.93805C23.4794 4.54139 23.8843 4.91367 24.8052 5.11264C27.8429 5.86361 30.0959 7.83625 31.2057 9.9565C31.6756 10.853 31.9441 11.7858 31.9923 12.6737C32.0427 13.6129 31.8455 14.5094 31.3735 15.2775C30.5449 16.6318 28.9107 17.5475 26.3429 17.5475V17.5432C25.9968 17.5432 25.6968 17.34 25.55 17.0447H25.5458C23.448 17.6759 20.6075 17.1945 17.7251 16.7045C17.4587 16.6596 17.1902 16.6147 16.9175 16.5719C15.6777 13.9488 14.4924 10.8637 15.2203 4.71042C15.2266 4.65907 15.1952 4.612 15.1469 4.59916C15.0987 4.58632 15.0504 4.612 15.0315 4.65693C12.4932 10.6647 12.4449 13.645 13.2547 16.1568C11.2135 16.0563 9.17234 16.2338 7.30109 17.0276L7.30738 17.0126L7.32626 16.9185V16.9206ZM7.32207 16.9548C7.32207 16.9548 7.31787 16.9741 7.31578 16.9827L7.32207 16.9548ZM25.4786 7.73141C26.4352 9.8046 27.0625 12.3549 27.2009 15.3866C27.2051 15.4657 27.2387 15.5342 27.2995 15.5856C27.3604 15.6369 27.4317 15.6562 27.5093 15.6433C28.6988 15.4551 29.4645 14.9672 29.861 14.319C30.1316 13.8761 30.2449 13.3412 30.2134 12.7678C30.1798 12.1431 29.9826 11.4713 29.6365 10.8102C28.9211 9.44088 27.6016 8.14861 25.8248 7.36555C25.7199 7.32062 25.6045 7.34416 25.5269 7.42546C25.4472 7.5089 25.4283 7.62657 25.4765 7.73141H25.4786ZM27.6625 19.0131C27.5869 25.4616 26.1604 30.7098 21.4886 33.6302C20.0579 34.5245 18.4803 34.9824 16.8881 34.9995C15.3021 35.0166 13.7078 34.5951 12.2393 33.7329C11.4883 33.2922 10.7688 32.7338 10.1017 32.0619C9.52058 31.4586 9.1157 31.0863 8.19476 30.8874C5.15713 30.1364 2.90407 28.1638 1.79433 26.0435C1.32442 25.147 1.0559 24.2142 1.00765 23.3263C0.957304 22.3871 1.1545 21.4906 1.62651 20.7225C2.45514 19.3682 4.08934 18.4525 6.65706 18.4525V18.4568C7.0032 18.4568 7.30529 18.66 7.45004 18.9553H7.45423C9.38002 18.3755 11.9289 18.7349 14.5637 19.1757C15.8455 21.8201 17.3328 25.0786 17.2007 31.8009C17.2007 31.8523 17.2342 31.8951 17.2846 31.9036C17.3328 31.9122 17.379 31.8844 17.3937 31.8373C19.5607 25.5771 19.2859 22.3657 18.3314 19.7341C20.832 19.9951 23.3934 19.9502 25.6989 18.9746L25.6926 18.9895C25.8982 18.3969 27.5555 18.4889 27.6604 19.0195L27.6625 19.0131ZM25.6737 19.1115C25.6737 19.1008 25.6737 19.0901 25.6737 19.0772C25.6737 19.0879 25.6737 19.0986 25.6737 19.1115ZM25.68 19.043C25.68 19.043 25.6842 19.0238 25.6863 19.0152C25.6842 19.0238 25.6821 19.0345 25.68 19.043ZM25.6758 19.0772C25.6758 19.0665 25.6779 19.0558 25.68 19.0452L25.6758 19.0772ZM25.6863 19.0131C25.6863 19.0131 25.6926 18.9938 25.6947 18.9831L25.6863 19.0131ZM7.52136 28.2686C6.56476 26.1954 5.93751 23.6451 5.79906 20.6134C5.79486 20.5343 5.7613 20.4658 5.70046 20.4144C5.63962 20.3631 5.5683 20.3438 5.49068 20.3567C4.30122 20.545 3.53552 21.0328 3.13903 21.681C2.86841 22.1239 2.75513 22.6588 2.7866 23.2322C2.82016 23.8569 3.01736 24.5287 3.3635 25.1898C4.07885 26.5591 5.39837 27.8514 7.17522 28.6344C7.28011 28.6794 7.39549 28.6558 7.47311 28.5745C7.55283 28.4911 7.57171 28.3734 7.52346 28.2686H7.52136Z" fill="#1D1D1B"/>
<path d="M7.32626 16.9206C7.32626 16.9078 7.32626 16.8971 7.32626 16.8864C7.32626 16.8992 7.32626 16.9099 7.32626 16.9206ZM7.32626 16.9206C7.32626 16.9313 7.32626 16.942 7.32207 16.9527C7.32207 16.9634 7.31787 16.9741 7.31578 16.9827M7.32626 16.9206V16.9185L7.30738 17.0126L7.30109 17.0276C9.17234 16.2338 11.2135 16.0563 13.2547 16.1568C12.4449 13.645 12.4932 10.6647 15.0315 4.65693C15.0504 4.612 15.0987 4.58632 15.1469 4.59916C15.1952 4.612 15.2266 4.65907 15.2203 4.71042C14.4924 10.8637 15.6777 13.9488 16.9175 16.5719C17.1902 16.6147 17.4587 16.6596 17.7251 16.7045C20.6075 17.1945 23.448 17.6759 25.5458 17.0447H25.55C25.6968 17.34 25.9968 17.5432 26.3429 17.5432V17.5475C28.9107 17.5475 30.5449 16.6318 31.3735 15.2775C31.8455 14.5094 32.0427 13.6129 31.9923 12.6737C31.9441 11.7858 31.6756 10.853 31.2057 9.9565C30.0959 7.83624 27.8429 5.86361 24.8052 5.11264C23.8843 4.91367 23.4794 4.54139 22.8983 3.93805C22.2312 3.26625 21.5117 2.70783 20.7607 2.26709C19.2922 1.40487 17.6978 0.983385 16.1119 1.0005C14.5197 1.01762 12.9421 1.47333 11.5135 2.36979C6.84167 5.29022 5.41516 10.5385 5.33964 16.9869C5.44453 17.5154 7.1018 17.6074 7.30738 17.0148C7.30948 17.0041 7.31368 16.9955 7.31578 16.9848V16.9827M7.31578 16.9827C7.31787 16.9741 7.32207 16.9548 7.32207 16.9548L7.31578 16.9827ZM25.4786 7.73141C26.4352 9.8046 27.0625 12.3549 27.2009 15.3866C27.2051 15.4657 27.2387 15.5342 27.2995 15.5856C27.3604 15.6369 27.4317 15.6562 27.5093 15.6433C28.6988 15.4551 29.4645 14.9672 29.861 14.319C30.1316 13.8761 30.2449 13.3412 30.2134 12.7678C30.1798 12.1431 29.9826 11.4713 29.6365 10.8102C28.9211 9.44088 27.6016 8.14861 25.8248 7.36555C25.7199 7.32062 25.6045 7.34416 25.5269 7.42546C25.4472 7.5089 25.4283 7.62657 25.4765 7.73141H25.4786ZM27.6625 19.0131C27.5869 25.4616 26.1604 30.7098 21.4886 33.6302C20.0579 34.5245 18.4803 34.9824 16.8881 34.9995C15.3021 35.0166 13.7078 34.5951 12.2393 33.7329C11.4883 33.2922 10.7688 32.7338 10.1017 32.0619C9.52058 31.4586 9.1157 31.0863 8.19476 30.8874C5.15713 30.1364 2.90407 28.1638 1.79433 26.0435C1.32442 25.147 1.0559 24.2142 1.00765 23.3263C0.957304 22.3871 1.1545 21.4906 1.62651 20.7225C2.45514 19.3682 4.08934 18.4525 6.65706 18.4525V18.4568C7.0032 18.4568 7.30529 18.66 7.45004 18.9553H7.45423C9.38002 18.3755 11.9289 18.7349 14.5637 19.1757C15.8455 21.8201 17.3328 25.0786 17.2007 31.8009C17.2007 31.8523 17.2342 31.8951 17.2846 31.9036C17.3328 31.9122 17.379 31.8844 17.3937 31.8373C19.5607 25.5771 19.2859 22.3657 18.3314 19.7341C20.832 19.9951 23.3934 19.9502 25.6989 18.9745L25.6926 18.9895C25.8982 18.3969 27.5555 18.4889 27.6604 19.0195L27.6625 19.0131ZM25.6737 19.1115C25.6737 19.1008 25.6737 19.0901 25.6737 19.0772C25.6737 19.0879 25.6737 19.0986 25.6737 19.1115ZM25.68 19.043C25.68 19.043 25.6842 19.0238 25.6863 19.0152C25.6842 19.0238 25.6821 19.0345 25.68 19.043ZM25.6758 19.0772C25.6758 19.0665 25.6779 19.0558 25.68 19.0452L25.6758 19.0772ZM25.6863 19.0131C25.6863 19.0131 25.6926 18.9938 25.6947 18.9831L25.6863 19.0131ZM7.52136 28.2686C6.56476 26.1954 5.93751 23.6451 5.79906 20.6134C5.79486 20.5343 5.7613 20.4658 5.70046 20.4144C5.63962 20.3631 5.5683 20.3438 5.49068 20.3567C4.30122 20.545 3.53552 21.0328 3.13903 21.681C2.86841 22.1239 2.75513 22.6588 2.7866 23.2322C2.82016 23.8569 3.01736 24.5287 3.3635 25.1898C4.07885 26.5591 5.39837 27.8514 7.17522 28.6344C7.28011 28.6794 7.39549 28.6558 7.47311 28.5745C7.55283 28.4911 7.57171 28.3734 7.52346 28.2686H7.52136Z" stroke="#1D1D1B" stroke-width="0.57" stroke-miterlimit="22.93"/>
<path d="M53.1637 27.7266C52.5128 27.7266 51.8842 27.5973 51.2834 27.333C49.4253 26.5401 47.9901 24.943 46.9832 22.5362C46.6438 21.7265 46.3212 20.9111 46.0319 20.0788C45.8872 19.6515 45.7315 19.2241 45.5701 18.7911L44.5799 24.4763C44.5632 24.6225 44.5243 24.7631 44.4687 24.8981C44.3685 25.1342 44.1905 25.258 43.929 25.258C43.84 25.258 43.7455 25.2523 43.6453 25.2355C42.9833 25.1286 42.4993 24.9037 42.1934 24.5663C41.9709 24.2964 41.8652 23.9365 41.8652 23.4922C41.8652 23.1323 41.9152 22.7668 42.0098 22.4069C43.1168 17.1603 44.0681 11.8912 44.8581 6.60525C44.0514 6.77957 43.3672 7.1732 42.7998 7.78615C42.2323 8.3991 41.8207 9.10202 41.5592 9.89491C41.281 10.7665 41.142 11.835 41.142 13.0946C41.142 13.6401 41.1531 14.1799 41.1809 14.7141C41.0418 14.7479 40.9028 14.7647 40.7637 14.7647C40.3409 14.7647 39.9459 14.6242 39.5788 14.3486C39.2116 14.0731 38.9446 13.73 38.7777 13.3195C38.6108 12.909 38.5273 12.4817 38.5273 12.0487C38.5273 11.4751 38.6275 10.9015 38.8222 10.3335C39.067 9.56876 39.4119 8.85459 39.8569 8.19103C40.302 7.52748 40.8471 6.96514 41.5036 6.50402C42.4326 5.88545 43.4117 5.57617 44.4353 5.57617C44.9916 5.57617 45.5256 5.67739 46.0486 5.88545C46.4547 6.03166 46.7884 6.26784 47.0499 6.58837C47.2947 6.92577 47.4171 7.3644 47.4171 7.89862C47.4171 8.26413 47.3781 8.62403 47.3058 8.98393L46.3768 14.6298C46.9553 13.477 47.5728 12.3523 48.2293 11.2501C48.8857 10.148 49.659 9.14139 50.5435 8.2304C50.8717 7.893 51.2444 7.6062 51.6672 7.3644C52.1568 7.09448 52.6574 6.94265 53.1692 6.92016C53.8702 6.92016 54.4265 7.28004 54.8437 7.99421C54.9439 8.18541 54.9884 8.37098 54.9884 8.56218C54.9884 8.68589 54.9661 8.79836 54.916 8.89395C54.8326 9.05703 54.6935 9.14138 54.4877 9.14138C54.3709 9.14138 54.2596 9.12452 54.1372 9.09078C54.0204 9.05704 53.898 9.04016 53.7756 9.02892C53.5308 9.02892 53.2972 9.10202 53.0802 9.2426C52.8577 9.38881 52.6519 9.55189 52.4572 9.73184C50.4211 11.61 48.7077 13.7525 47.3225 16.1593L47.3002 16.2099C47.1945 16.373 47.1389 16.5474 47.1278 16.7273C47.1278 16.8904 47.1667 17.0535 47.2502 17.2109L47.2613 17.2334C48.385 19.8933 49.8704 22.3394 51.7117 24.5607C52.0121 24.9374 52.3459 25.2917 52.7075 25.6235C53.0691 25.9552 53.4808 26.2027 53.9369 26.377C54.1483 26.4445 54.3097 26.5063 54.4265 26.5626C54.5878 26.6525 54.688 26.7988 54.7213 26.9956C54.7213 27.1755 54.6323 27.3274 54.4487 27.4454C54.2652 27.5635 54.0649 27.6423 53.8424 27.6816C53.6199 27.721 53.3973 27.7379 53.1692 27.7379L53.1637 27.7266Z" fill="#1D1D1B"/>
<path d="M61.5121 24.1052C60.9113 24.1052 60.3995 23.9252 59.9822 23.5597C59.3981 23.0311 59.1033 22.3001 59.1033 21.361V21.2148C58.942 21.5184 58.7751 21.8165 58.6026 22.1033C58.3411 22.57 58.0407 23.0086 57.6958 23.4135C57.4733 23.6441 57.2118 23.8184 56.9059 23.9309C56.5999 24.0433 56.2884 24.1052 55.9713 24.1052L55.6542 24.0939C55.1813 24.0265 54.7808 23.8521 54.4415 23.5653C53.8573 23.0367 53.5625 22.2945 53.5625 21.3272C53.5681 20.793 53.607 20.2588 53.6738 19.719C53.7906 18.7461 53.963 17.7845 54.1967 16.8286C54.3024 16.3731 54.4192 15.9232 54.5416 15.4677C54.7641 14.6017 54.8976 14.0281 54.9477 13.7526C54.9477 13.7132 54.9533 13.6795 54.9699 13.6514L54.9811 13.3814C54.9811 13.224 54.9699 13.0496 54.9421 12.8641C54.9421 12.7179 54.9978 12.5885 55.1035 12.4817C55.2092 12.3748 55.3371 12.3186 55.4817 12.3186C55.5207 12.3186 55.5986 12.3355 55.7043 12.3636C55.81 12.3917 55.9045 12.4142 55.988 12.4311C56.3941 12.4986 56.7612 12.6616 57.0895 12.9259C57.3899 13.2465 57.5401 13.6064 57.5401 14C57.5345 14.2137 57.5011 14.433 57.4399 14.6523L57.4177 14.7648C57.3676 14.9897 57.3175 15.2034 57.2564 15.4171L56.9726 16.6149C56.7501 17.5371 56.5443 18.4706 56.3496 19.4097L56.2995 19.6908C56.1771 20.2419 56.1159 20.7368 56.1159 21.1754L56.1382 21.6084C56.2216 22.0133 56.3774 22.2157 56.6166 22.2157C56.7891 22.2157 56.9726 22.1314 57.1673 21.9683C57.618 21.5915 58.1019 20.8211 58.636 19.6571L59.1979 18.5099L59.5149 17.8295C59.6429 17.1603 59.9044 16.075 60.2993 14.568C60.405 14.1743 60.4773 13.7751 60.5219 13.3814L60.5107 13.0721L60.4718 12.8472C60.4718 12.7066 60.5274 12.5829 60.6387 12.4761C60.7499 12.3692 60.8779 12.313 61.0225 12.313L61.2172 12.3523L61.5343 12.4367C61.9404 12.5042 62.302 12.6616 62.608 12.9203C62.9195 13.2577 63.0697 13.6289 63.0697 14.0337C63.0697 14.1968 63.0363 14.4049 62.9696 14.6523L62.5079 16.6149C62.2853 17.5371 62.0795 18.4706 61.8848 19.4097C61.8292 19.674 61.7791 19.9383 61.7402 20.2138L61.7179 20.4106C61.679 20.7143 61.6567 20.9898 61.6567 21.226C61.6567 21.3554 61.6623 21.4847 61.679 21.6084C61.7513 22.0133 61.9182 22.2157 62.1796 22.2157C62.4411 22.2157 62.7026 22.047 62.9863 21.7096L63.0475 21.6365V21.6253C63.0975 21.5747 63.1365 21.5184 63.1699 21.451C63.5537 20.883 63.8875 20.2869 64.1712 19.6571L65.1503 17.6158C65.2226 17.4752 65.3283 17.3909 65.4674 17.3684L65.5786 17.3459C65.6454 17.3459 65.7177 17.3571 65.8012 17.3853L65.8512 17.4078C65.9569 17.4415 66.0404 17.5315 66.1071 17.6777L66.1461 17.8745C66.1461 17.9307 66.1405 17.9813 66.1294 18.0263C66.1183 18.0713 66.1071 18.0994 66.0904 18.1107C66.0793 18.1219 66.0738 18.1388 66.0738 18.1557C65.4451 19.6571 64.7998 20.9673 64.1434 22.0976C63.6038 23.093 63.0419 23.7059 62.4467 23.9252C62.1463 24.0433 61.8347 24.0996 61.5176 24.0996L61.5121 24.1052Z" fill="#1D1D1B"/>
<path d="M68.3118 24.3245C68.0837 24.3245 67.9391 24.3132 67.8834 24.2851H67.8111C66.9711 24.1783 66.3202 23.8015 65.8529 23.1492C65.5358 22.6487 65.3745 22.1089 65.3745 21.5409C65.3745 21.0067 65.4635 20.6749 65.6415 20.5512C65.7472 20.4837 65.8585 20.45 65.9697 20.45L66.1033 20.4612C66.2256 20.4837 66.3202 20.5512 66.387 20.6524C66.4537 20.7536 66.4871 20.8661 66.4871 20.9898L66.476 21.1135C66.4537 21.2372 66.437 21.361 66.4259 21.4847C66.4259 21.8165 66.5316 22.1314 66.7374 22.435C66.9433 22.7387 67.1992 22.8905 67.4996 22.8905C67.6943 22.8905 67.9001 22.8005 68.1115 22.6206C68.4119 22.3394 68.5621 21.9683 68.5621 21.4959C68.5621 21.1754 68.5065 20.8549 68.3897 20.5456C68.245 20.0788 68.0614 19.629 67.8501 19.2128L67.6275 18.718C67.4662 18.3974 67.316 18.0713 67.1769 17.7395C67.0045 17.3515 66.8654 16.9522 66.7597 16.5417C66.5094 17.0703 66.2646 17.5989 66.0254 18.1332C65.9419 18.3075 65.7862 18.3918 65.5636 18.3918C65.3856 18.3918 65.2466 18.3243 65.1464 18.195C65.0908 18.1107 65.0518 18.0094 65.0352 17.8857C65.0352 17.7845 65.0574 17.6945 65.1075 17.5989C65.5303 16.5755 66.0143 15.5914 66.5483 14.6354C66.7931 14.1856 67.0824 13.7525 67.4161 13.3364C67.7499 12.9259 68.1671 12.6335 68.6623 12.4704L68.7234 12.4592C69.0684 12.3355 69.4188 12.268 69.786 12.2624C70.1921 12.2624 70.5982 12.3467 70.9987 12.521C71.0877 12.5435 71.1656 12.5773 71.2324 12.6223C71.2991 12.6616 71.3492 12.6954 71.3937 12.7235C71.4326 12.746 71.4771 12.7741 71.5217 12.8022C71.5662 12.8303 71.6051 12.8697 71.6385 12.9203C71.7609 13.0271 71.8221 13.1565 71.8221 13.3139L71.8109 13.4489C71.7887 13.567 71.7219 13.6626 71.6162 13.7413C71.5105 13.82 71.3993 13.8594 71.288 13.8594C71.2491 13.8594 71.2046 13.8538 71.1545 13.8369C71.0321 13.7807 70.8986 13.7357 70.7484 13.7132C70.7317 13.7076 70.7094 13.7019 70.6872 13.7019L70.5147 13.6907L70.4146 13.7019C70.2088 13.7244 70.0419 13.8313 69.9028 14.0112L69.8917 14.0337C69.7915 14.1743 69.7359 14.2868 69.7192 14.3655C69.6135 14.6467 69.5579 14.9447 69.5579 15.2652C69.5579 15.7264 69.6413 16.1762 69.8138 16.6092C69.9863 17.0422 70.1754 17.4752 70.3868 17.897C70.6371 18.375 70.8597 18.8811 71.0544 19.4153C71.2491 19.9495 71.3436 20.4893 71.3436 21.0348C71.3436 21.2597 71.3214 21.4791 71.2824 21.704C71.4883 21.5128 71.6774 21.3104 71.8554 21.0967C72.6955 20.0732 73.4186 18.9092 74.0306 17.5989C74.153 17.4246 74.3032 17.3403 74.4812 17.3403C74.5813 17.3403 74.6703 17.3628 74.7482 17.4021C74.9207 17.5202 75.0041 17.6664 75.0041 17.8464C75.0041 17.9476 74.9819 18.0376 74.9318 18.1332C74.3699 19.359 73.669 20.5062 72.829 21.569C71.8443 22.823 70.7317 23.6665 69.4911 24.0995C69.1017 24.2401 68.7012 24.3076 68.2951 24.3076L68.3118 24.3245Z" fill="#1D1D1B"/>
<path d="M79.8842 26.2815C79.1276 26.2815 78.3822 26.1465 77.659 25.8766C76.5241 25.4155 75.5895 24.6901 74.8497 23.7004C73.7259 22.1933 73.1641 20.4163 73.1641 18.3638C73.1641 17.4922 73.2586 16.6262 73.4478 15.7714C73.9874 13.3253 74.9832 11.1603 76.4407 9.28207C77.3753 8.0618 78.5213 7.10583 79.8731 6.41415C80.8355 5.9193 81.7756 5.67188 82.6991 5.67188C83.3834 5.67188 84.0231 5.81808 84.6183 6.1105C85.2136 6.40291 85.692 6.83591 86.048 7.41511C86.2261 7.71315 86.3151 8.14053 86.3151 8.70287C86.3151 8.9503 86.3095 9.18648 86.2928 9.40579L86.2817 9.6026C86.1927 11.0591 85.8033 12.673 85.119 14.4331C85.0022 14.748 84.8687 15.046 84.7018 15.3328C84.3458 15.9514 83.8173 16.2607 83.1275 16.2607C82.7436 16.2607 82.3709 16.1819 82.0037 16.0245C81.7923 15.9514 81.5976 15.8389 81.4196 15.6871C81.2416 15.5353 81.1526 15.3497 81.1526 15.136C81.1693 14.9392 81.2805 14.7142 81.4975 14.4668C82.8326 12.8867 83.7171 11.0984 84.151 9.10212C84.19 8.90531 84.2122 8.70849 84.2122 8.52292C84.2122 8.25862 84.1399 8.02244 83.9897 7.80876C83.795 7.63443 83.5725 7.55008 83.3166 7.55008C82.9995 7.55008 82.6824 7.63443 82.3764 7.79751C81.1526 8.45544 80.129 9.35518 79.2945 10.4911C77.5088 12.8698 76.5241 15.5521 76.335 18.5325C76.3183 18.7631 76.3127 18.988 76.3127 19.2129C76.3127 19.6516 76.3406 20.0789 76.3962 20.5119C76.6298 22.2271 77.3864 23.4754 78.6548 24.2683C79.2834 24.6001 79.9398 24.7632 80.6352 24.7632C81.1915 24.7632 81.7367 24.6676 82.2707 24.4764C83.4501 24.0265 84.4681 23.318 85.3137 22.3508C86.5265 21.0237 87.4166 19.5054 87.9784 17.7902C88.1231 17.3235 88.3345 17.0761 88.6126 17.0479C88.7572 17.0479 88.8852 17.121 88.9909 17.2729C89.0743 17.391 89.1133 17.5203 89.1133 17.6665C89.1133 17.8914 89.0576 18.1051 88.952 18.3076C87.9562 21.018 86.5543 23.0874 84.7463 24.5214C84.0454 25.0725 83.2777 25.5055 82.4376 25.8148C81.5976 26.1241 80.7465 26.2759 79.8842 26.2759V26.2815Z" fill="#1D1D1B"/>
<path d="M90.2642 24.2624H90.0918C89.5855 24.2118 89.1349 24.0374 88.7288 23.7338C88.3227 23.4301 88.0056 23.0534 87.7664 22.6091C87.3436 21.7206 87.1322 20.7759 87.1322 19.7806L87.1211 19.2745C87.1211 17.8405 87.3547 16.5584 87.8276 15.4168C88.4395 13.8704 89.3463 12.9201 90.5535 12.577C90.7927 12.5208 91.0319 12.4927 91.2767 12.4927C91.9053 12.4927 92.4894 12.6895 93.0235 13.0831C93.9581 13.9491 94.4309 15.2931 94.4309 17.1207C94.4309 18.0823 94.2863 19.1283 94.0026 20.2473C94.876 19.8987 95.5769 19.1789 96.1054 18.0711L96.1555 17.9698C96.3446 17.5425 96.5838 17.3288 96.8787 17.3288L97.0122 17.3513C97.2236 17.475 97.3293 17.6774 97.3293 17.9586C97.2903 18.1891 97.2013 18.4141 97.0622 18.6278C96.3557 19.8705 95.5769 20.6972 94.7258 21.0964C94.3753 21.2595 94.0026 21.3439 93.602 21.3439C93.2905 22.1199 92.851 22.8003 92.2836 23.3851C92.0054 23.6494 91.6939 23.8631 91.349 24.0206C91.0041 24.1837 90.6425 24.2624 90.2642 24.2624ZM90.8483 22.9296C90.9874 22.8903 91.1042 22.8059 91.2044 22.6822C91.6271 22.1874 91.9387 21.6307 92.1445 21.0121L92.1556 20.9277C92.1501 20.8771 92.1167 20.8434 92.0722 20.8153C91.3546 20.2248 90.954 19.3082 90.865 18.0711C90.8428 17.8236 90.8261 17.5818 90.8261 17.34C90.8261 16.4178 90.954 15.3662 91.2155 14.1909C90.6425 15.0457 90.2531 16.0916 90.0417 17.3175C89.8692 18.2904 89.7858 19.2014 89.7858 20.0617C89.7858 20.5791 89.8359 21.1021 89.9471 21.6194C90.0027 21.9737 90.1251 22.3055 90.3143 22.6091C90.4533 22.8228 90.6147 22.9296 90.7927 22.9296H90.8539H90.8483ZM92.5005 19.7412L92.6452 18.8752C92.6674 18.6053 92.6897 18.3916 92.7008 18.2454C92.7119 18.0992 92.7231 17.953 92.7231 17.8124C92.7231 17.6718 92.7342 17.4806 92.7398 17.2332L92.7008 16.2828C92.6285 15.8161 92.5729 15.4843 92.5284 15.2931C92.4783 15.0569 92.3837 14.7758 92.2446 14.4665C92.1723 14.7308 92.1167 14.9388 92.0833 15.0907C92.0499 15.2425 92.0277 15.3775 92.011 15.4899C91.9943 15.6024 91.9832 15.743 91.9665 15.9004C91.9498 16.0579 91.9387 16.2603 91.9109 16.5078C91.8886 16.7889 91.8775 17.0645 91.8775 17.3344C91.8775 17.5425 91.883 17.7618 91.8997 18.0036C91.9331 18.431 91.9776 18.729 92.0333 18.8921C92.0889 19.0551 92.1835 19.2632 92.317 19.5106V19.5219C92.3503 19.5894 92.3893 19.6456 92.4394 19.6962L92.4505 19.7075C92.4505 19.7075 92.4727 19.7356 92.4894 19.7468L92.5005 19.7412Z" fill="#1D1D1B"/>
<path d="M98.1229 30.4316C97.5221 30.4316 96.9713 30.1786 96.4707 29.6668C95.9978 29.1382 95.6863 28.5253 95.5305 27.828C95.3748 27.1251 95.2969 26.4221 95.2969 25.7136C95.3024 24.3471 95.4304 22.8963 95.6752 21.3667C95.8977 19.9665 96.1536 18.5719 96.4429 17.1773C96.6932 15.9233 96.9268 14.6749 97.1382 13.4209C97.3496 12.1669 97.4887 10.9073 97.5555 9.64202C97.5555 9.22027 97.7168 9.01221 98.0339 9.01221C98.223 9.01221 98.4122 9.06844 98.6069 9.17528L98.8405 9.28775C99.1076 9.40584 99.3579 9.5408 99.586 9.69263C99.9698 9.9738 100.159 10.4124 100.159 11.0141C100.159 11.3628 100.12 11.7058 100.037 12.0544C99.3579 15.5409 98.7515 19.0274 98.2175 22.5195C100.304 21.586 101.895 20.1127 102.996 18.0827C103.096 17.8578 103.23 17.6722 103.413 17.5147C103.536 17.4135 103.669 17.3685 103.814 17.3685C103.886 17.3685 103.959 17.3854 104.02 17.4191C104.175 17.5204 104.253 17.6553 104.253 17.8409C104.253 18.0377 104.192 18.2401 104.07 18.4482C102.79 20.7369 100.988 22.4745 98.6569 23.6498C99.5637 24.8757 100.02 26.2422 100.025 27.7493C100.025 28.2779 99.9198 28.7896 99.7139 29.2901C99.5081 29.7905 99.1632 30.1392 98.6792 30.3472C98.5012 30.4147 98.312 30.4485 98.1173 30.4485L98.1229 30.4316ZM98.5012 28.4184C98.5902 28.4184 98.6681 28.3735 98.7293 28.2891C98.7905 28.2048 98.835 28.1092 98.8572 28.0079C98.924 27.7605 98.9574 27.5075 98.9574 27.2544C98.9574 26.9676 98.9073 26.6358 98.796 26.2647C98.6236 25.6292 98.351 25.0669 97.9783 24.5721C97.8503 25.0276 97.7836 25.5112 97.7836 26.0285C97.7836 27.1251 97.9393 27.8673 98.2453 28.2666C98.312 28.3566 98.3955 28.4072 98.5012 28.4128V28.4184Z" fill="#1D1D1B"/>
<path d="M104.955 30.4316C104.354 30.4316 103.803 30.1786 103.303 29.6668C102.83 29.1382 102.518 28.5253 102.363 27.828C102.207 27.1251 102.129 26.4221 102.129 25.7136C102.134 24.3471 102.262 22.8963 102.507 21.3667C102.73 19.9665 102.986 18.5719 103.275 17.1773C103.525 15.9233 103.759 14.6749 103.97 13.4209C104.182 12.1669 104.321 10.9073 104.388 9.64202C104.388 9.22027 104.549 9.01221 104.866 9.01221C105.055 9.01221 105.244 9.06844 105.439 9.17528L105.673 9.28775C105.94 9.40584 106.19 9.5408 106.418 9.69263C106.802 9.9738 106.991 10.4124 106.991 11.0141C106.991 11.3628 106.952 11.7058 106.869 12.0544C106.19 15.5409 105.584 19.0274 105.049 22.5195C107.136 21.586 108.727 20.1127 109.828 18.0827C109.928 17.8578 110.062 17.6722 110.245 17.5147C110.368 17.4135 110.501 17.3685 110.646 17.3685C110.718 17.3685 110.791 17.3854 110.852 17.4191C111.008 17.5204 111.085 17.6553 111.085 17.8409C111.085 18.0377 111.024 18.2401 110.902 18.4482C109.622 20.7369 107.82 22.4745 105.489 23.6498C106.396 24.8757 106.852 26.2422 106.857 27.7493C106.857 28.2779 106.752 28.7896 106.546 29.2901C106.34 29.7905 105.995 30.1392 105.511 30.3472C105.333 30.4147 105.144 30.4485 104.949 30.4485L104.955 30.4316ZM105.333 28.4184C105.422 28.4184 105.5 28.3735 105.561 28.2891C105.622 28.2048 105.667 28.1092 105.689 28.0079C105.756 27.7605 105.789 27.5075 105.789 27.2544C105.789 26.9676 105.739 26.6358 105.628 26.2647C105.456 25.6292 105.183 25.0669 104.81 24.5721C104.682 25.0276 104.616 25.5112 104.616 26.0285C104.616 27.1251 104.771 27.8673 105.077 28.2666C105.144 28.3566 105.228 28.4072 105.333 28.4128V28.4184Z" fill="#1D1D1B"/>
<path d="M112.858 24.1053C112.647 24.1053 112.435 24.0828 112.224 24.0434C111.517 23.8804 110.917 23.5261 110.427 22.9806C109.615 22.0921 109.203 20.9731 109.203 19.6178C109.203 18.7012 109.364 17.7959 109.693 16.9018C110.004 15.8614 110.494 14.9392 111.172 14.1238C111.896 13.2747 112.797 12.7686 113.876 12.6055C114.004 12.5886 114.132 12.583 114.254 12.583C114.711 12.583 115.083 12.6842 115.378 12.8867C115.673 13.0891 115.89 13.3534 116.029 13.6908C116.168 14.0226 116.235 14.3825 116.235 14.7705C116.235 15.5015 116.001 16.2157 115.528 16.9074C115.111 17.4247 114.627 17.869 114.076 18.2401C113.526 18.6113 112.947 18.9487 112.352 19.2523C112.263 19.2861 112.19 19.3367 112.129 19.4154C112.063 19.5616 112.029 19.8372 112.029 20.2308C112.029 20.9 112.174 21.5467 112.458 22.1821C112.741 22.4351 113.064 22.5645 113.425 22.5645C113.954 22.5251 114.432 22.3283 114.855 21.9853C115.517 21.4736 116.085 20.8719 116.563 20.1746C117.041 19.4773 117.459 18.7462 117.826 17.9814C118.032 17.5709 118.26 17.3629 118.51 17.3629C118.705 17.3685 118.844 17.4753 118.927 17.6722C118.966 17.7565 118.988 17.8465 118.988 17.9421C118.988 18.2795 118.577 19.1005 117.754 20.3995C117.442 20.9 117.108 21.3892 116.741 21.8559C116.001 22.8119 115.172 23.4699 114.26 23.8354C113.804 24.0153 113.336 24.1053 112.869 24.1053H112.858ZM112.296 18.0489C113.136 17.6778 113.854 17.1492 114.449 16.4688C114.733 16.1651 114.944 15.8108 115.072 15.4172C115.106 15.2991 115.122 15.1641 115.122 14.9954C115.122 14.7986 115.089 14.6018 115.016 14.4162C114.95 14.225 114.827 14.1294 114.655 14.1294C114.46 14.1294 114.282 14.2194 114.126 14.3994C113.448 15.0742 112.964 15.8783 112.674 16.8118C112.53 17.2223 112.402 17.6328 112.296 18.0489Z" fill="#1D1D1B"/>
<path d="M120.874 24.1053C120.662 24.1053 120.451 24.0828 120.239 24.0434C119.533 23.8804 118.932 23.5261 118.443 22.9806C117.63 22.0921 117.219 20.9731 117.219 19.6178C117.219 18.7012 117.38 17.7959 117.708 16.9018C118.02 15.8614 118.509 14.9392 119.188 14.1238C119.911 13.2747 120.812 12.7686 121.892 12.6055C122.02 12.5886 122.148 12.583 122.27 12.583C122.726 12.583 123.099 12.6842 123.394 12.8867C123.689 13.0891 123.906 13.3534 124.045 13.6908C124.184 14.0226 124.25 14.3825 124.25 14.7705C124.25 15.5015 124.017 16.2157 123.544 16.9074C123.127 17.4247 122.643 17.869 122.092 18.2401C121.541 18.6113 120.963 18.9487 120.367 19.2523C120.278 19.2861 120.206 19.3367 120.145 19.4154C120.078 19.5616 120.045 19.8372 120.045 20.2308C120.045 20.9 120.189 21.5467 120.473 22.1821C120.757 22.4351 121.079 22.5645 121.441 22.5645C121.97 22.5251 122.448 22.3283 122.871 21.9853C123.533 21.4736 124.1 20.8719 124.579 20.1746C125.057 19.4773 125.474 18.7462 125.841 17.9814C126.047 17.5709 126.275 17.3629 126.526 17.3629C126.72 17.3685 126.859 17.4753 126.943 17.6722C126.982 17.7565 127.004 17.8465 127.004 17.9421C127.004 18.2795 126.592 19.1005 125.769 20.3995C125.458 20.9 125.124 21.3892 124.757 21.8559C124.017 22.8119 123.188 23.4699 122.276 23.8354C121.819 24.0153 121.352 24.1053 120.885 24.1053H120.874ZM120.312 18.0489C121.152 17.6778 121.869 17.1492 122.465 16.4688C122.748 16.1651 122.96 15.8108 123.088 15.4172C123.121 15.2991 123.138 15.1641 123.138 14.9954C123.138 14.7986 123.104 14.6018 123.032 14.4162C122.965 14.225 122.843 14.1294 122.671 14.1294C122.476 14.1294 122.298 14.2194 122.142 14.3994C121.463 15.0742 120.979 15.8783 120.69 16.8118C120.545 17.2223 120.417 17.6328 120.312 18.0489Z" fill="#1D1D1B"/>
</g>
<defs>
<clipPath id="clip0_1078_7755">
<rect width="127" height="36" fill="white"/>
</clipPath>
</defs>
</svg>
