<svg width="127" height="36" viewBox="0 0 127 36" fill="none" xmlns="http://www.w3.org/2000/svg">
<g clip-path="url(#clip0_1009_657)">
<path fill-rule="evenodd" clip-rule="evenodd" d="M6.81712 16.8768C6.81712 16.8881 6.81712 16.8994 6.81712 16.913C6.81712 16.9017 6.81712 16.8904 6.81712 16.8768ZM6.81712 16.913C6.81712 16.9243 6.81712 16.9357 6.81265 16.947C6.81265 16.9583 6.80817 16.9696 6.80593 16.9787V16.9809C6.80369 16.9923 6.79921 17.0013 6.79697 17.0126C6.57746 17.6398 4.80797 17.5425 4.69598 16.9832C4.77661 10.1591 6.29972 4.60509 11.2879 1.51453C12.8132 0.565849 14.4976 0.0835847 16.1977 0.0654715C17.891 0.0473583 19.5933 0.493396 21.1612 1.40585C21.9631 1.87226 22.7313 2.46321 23.4436 3.17415C24.064 3.81264 24.4963 4.2066 25.4796 4.41717C28.7229 5.21189 31.1286 7.29943 32.3134 9.54321C32.8152 10.4919 33.1019 11.4791 33.1534 12.4187C33.2071 13.4126 32.9966 14.3613 32.4926 15.1742C31.6079 16.6074 29.863 17.5764 27.1214 17.5764V17.5719C26.7519 17.5719 26.4316 17.3568 26.2748 17.0443H26.2703C24.0304 17.7123 20.9977 17.2028 17.9201 16.6843C17.6356 16.6368 17.3489 16.5892 17.0578 16.544C15.734 13.7681 14.4685 10.5032 15.2457 3.99151C15.2524 3.93717 15.2188 3.88736 15.1673 3.87377C15.1158 3.86019 15.0643 3.88736 15.0441 3.93491C12.3339 10.2926 12.2824 13.4466 13.147 16.1047C10.9676 15.9983 8.7882 16.1862 6.79025 17.0262L6.79697 17.0104L6.81712 16.9108V16.913ZM6.81265 16.9492C6.81265 16.9492 6.80817 16.9696 6.80593 16.9787L6.81265 16.9492ZM26.1986 7.18849C27.22 9.38245 27.8897 12.0813 28.0375 15.2896C28.042 15.3734 28.0779 15.4459 28.1428 15.5002C28.2078 15.5545 28.2839 15.5749 28.3668 15.5613C29.6368 15.3621 30.4544 14.8458 30.8777 14.1598C31.1666 13.6911 31.2876 13.1251 31.254 12.5183C31.2181 11.8572 31.0076 11.1462 30.638 10.4466C29.8742 8.99755 28.4654 7.63 26.5682 6.80132C26.4562 6.75377 26.333 6.77868 26.2501 6.86472C26.165 6.95302 26.1449 7.07755 26.1964 7.18849H26.1986ZM28.5303 19.1274C28.4497 25.9515 26.9266 31.5055 21.9384 34.596C20.4108 35.5425 18.7265 36.027 17.0264 36.0451C15.3331 36.0632 13.6308 35.6172 12.0629 34.7047C11.261 34.2383 10.4927 33.6474 9.78046 32.9364C9.16002 32.2979 8.72773 31.904 7.74443 31.6934C4.50111 30.8987 2.0955 28.8111 0.910617 26.5674C0.408889 25.6187 0.122187 24.6315 0.0706698 23.6919C0.0169132 22.6979 0.22746 21.7492 0.731428 20.9364C1.61617 19.5032 3.36102 18.5342 6.10261 18.5342V18.5387C6.47219 18.5387 6.79473 18.7538 6.94928 19.0662H6.95376C9.00995 18.4526 11.7314 18.833 14.5446 19.2994C15.9132 22.0979 17.5013 25.5462 17.3601 32.6602C17.3601 32.7145 17.396 32.7598 17.4497 32.7689C17.5013 32.7779 17.5505 32.7485 17.5662 32.6987C19.88 26.0738 19.5866 22.6753 18.5674 19.8904C21.2373 20.1666 23.9722 20.1191 26.4338 19.0866L26.4271 19.1025C26.6466 18.4753 28.4161 18.5726 28.5281 19.1342L28.5303 19.1274ZM26.4069 19.2315C26.4069 19.2202 26.4069 19.2089 26.4069 19.1953C26.4069 19.2066 26.4069 19.2179 26.4069 19.2315ZM26.4137 19.1591C26.4137 19.1591 26.4181 19.1387 26.4204 19.1296C26.4181 19.1387 26.4159 19.15 26.4137 19.1591ZM26.4092 19.1953C26.4092 19.184 26.4114 19.1726 26.4137 19.1613L26.4092 19.1953ZM26.4204 19.1274C26.4204 19.1274 26.4271 19.107 26.4293 19.0957L26.4204 19.1274ZM7.02543 28.9221C6.00406 26.7281 5.33434 24.0292 5.18651 20.8209C5.18203 20.7372 5.14619 20.6647 5.08123 20.6104C5.01628 20.556 4.94012 20.5357 4.85725 20.5492C3.58725 20.7485 2.7697 21.2647 2.34637 21.9508C2.05742 22.4194 1.93647 22.9855 1.97007 23.5923C2.00591 24.2534 2.21645 24.9643 2.58603 25.664C3.34982 27.113 4.75869 28.4806 6.65586 29.3092C6.76785 29.3568 6.89104 29.3319 6.97392 29.2459C7.05903 29.1575 7.07919 29.033 7.02767 28.9221H7.02543Z" fill="white"/>
<path d="M6.81713 16.913C6.81713 16.8994 6.81713 16.8881 6.81713 16.8768C6.81713 16.8904 6.81713 16.9017 6.81713 16.913ZM6.81713 16.913C6.81713 16.9243 6.81712 16.9357 6.81265 16.947C6.81265 16.9583 6.80817 16.9696 6.80593 16.9787M6.81713 16.913V16.9108L6.79697 17.0104L6.79025 17.0262C8.7882 16.1862 10.9676 15.9983 13.147 16.1047C12.2824 13.4466 12.3339 10.2926 15.0441 3.93491C15.0643 3.88736 15.1158 3.86019 15.1673 3.87377C15.2188 3.88736 15.2524 3.93717 15.2457 3.99151C14.4685 10.5032 15.734 13.7681 17.0578 16.544C17.3489 16.5892 17.6356 16.6368 17.9201 16.6843C20.9977 17.2028 24.0304 17.7123 26.2703 17.0443H26.2748C26.4316 17.3568 26.7519 17.5719 27.1214 17.5719V17.5764C29.863 17.5764 31.6079 16.6074 32.4926 15.1742C32.9966 14.3613 33.2071 13.4126 33.1534 12.4187C33.1019 11.4791 32.8152 10.4919 32.3134 9.54321C31.1286 7.29943 28.7229 5.21189 25.4796 4.41717C24.4963 4.2066 24.064 3.81264 23.4436 3.17415C22.7313 2.46321 21.9631 1.87226 21.1612 1.40585C19.5933 0.493396 17.891 0.0473583 16.1977 0.0654715C14.4976 0.0835847 12.8132 0.565849 11.2879 1.51453C6.29972 4.60509 4.77661 10.1591 4.69598 16.9832C4.80797 17.5425 6.57746 17.6398 6.79697 17.0126C6.79921 17.0013 6.80369 16.9923 6.80593 16.9809V16.9787M6.80593 16.9787C6.80817 16.9696 6.81265 16.9492 6.81265 16.9492L6.80593 16.9787ZM26.1986 7.18849C27.22 9.38245 27.8897 12.0813 28.0375 15.2896C28.042 15.3734 28.0779 15.4458 28.1428 15.5002C28.2078 15.5545 28.2839 15.5749 28.3668 15.5613C29.6368 15.3621 30.4544 14.8459 30.8777 14.1598C31.1666 13.6911 31.2876 13.1251 31.254 12.5183C31.2181 11.8572 31.0076 11.1462 30.638 10.4466C29.8742 8.99755 28.4654 7.63 26.5682 6.80132C26.4562 6.75377 26.333 6.77868 26.2501 6.86472C26.165 6.95302 26.1449 7.07755 26.1964 7.18849H26.1986ZM28.5303 19.1274C28.4497 25.9515 26.9266 31.5055 21.9384 34.596C20.4108 35.5425 18.7265 36.027 17.0264 36.0451C15.3331 36.0632 13.6308 35.6172 12.0629 34.7047C11.261 34.2383 10.4927 33.6474 9.78046 32.9364C9.16002 32.2979 8.72772 31.904 7.74443 31.6934C4.50111 30.8987 2.0955 28.8111 0.910617 26.5674C0.408889 25.6187 0.122187 24.6315 0.0706698 23.6919C0.0169132 22.6979 0.22746 21.7492 0.731428 20.9364C1.61617 19.5032 3.36102 18.5342 6.10261 18.5342V18.5387C6.47219 18.5387 6.79473 18.7538 6.94928 19.0662H6.95376C9.00995 18.4526 11.7314 18.833 14.5446 19.2994C15.9132 22.0979 17.5013 25.5462 17.3601 32.6602C17.3601 32.7145 17.396 32.7598 17.4497 32.7689C17.5013 32.7779 17.5505 32.7485 17.5662 32.6987C19.88 26.0738 19.5866 22.6753 18.5674 19.8904C21.2373 20.1666 23.9722 20.1191 26.4338 19.0866L26.4271 19.1025C26.6466 18.4753 28.4161 18.5726 28.5281 19.1342L28.5303 19.1274ZM26.4069 19.2315C26.4069 19.2202 26.4069 19.2089 26.4069 19.1953C26.4069 19.2066 26.4069 19.2179 26.4069 19.2315ZM26.4136 19.1591C26.4136 19.1591 26.4181 19.1387 26.4204 19.1296C26.4181 19.1387 26.4159 19.15 26.4136 19.1591ZM26.4092 19.1953C26.4092 19.184 26.4114 19.1726 26.4136 19.1613L26.4092 19.1953ZM26.4204 19.1274C26.4204 19.1274 26.4271 19.107 26.4293 19.0957L26.4204 19.1274ZM7.02543 28.9221C6.00406 26.7281 5.33434 24.0292 5.18651 20.8209C5.18203 20.7372 5.14619 20.6647 5.08123 20.6104C5.01628 20.556 4.94012 20.5357 4.85725 20.5492C3.58725 20.7485 2.7697 21.2647 2.34637 21.9508C2.05742 22.4194 1.93647 22.9855 1.97007 23.5923C2.00591 24.2534 2.21645 24.9643 2.58603 25.664C3.34982 27.113 4.75869 28.4806 6.65585 29.3092C6.76785 29.3568 6.89104 29.3319 6.97392 29.2459C7.05903 29.1575 7.07919 29.033 7.02767 28.9221H7.02543Z" stroke="white" stroke-width="0.57" stroke-miterlimit="22.93"/>
<path d="M53.1617 27.7264C52.5109 27.7264 51.8822 27.5971 51.2814 27.3328C49.4234 26.5399 47.9881 24.9428 46.9812 22.536C46.6419 21.7263 46.3192 20.9109 46.0299 20.0786C45.8853 19.6512 45.7295 19.2239 45.5682 18.7909L44.578 24.4761C44.5613 24.6223 44.5223 24.7629 44.4667 24.8978C44.3666 25.134 44.1886 25.2577 43.9271 25.2577C43.8381 25.2577 43.7435 25.2521 43.6434 25.2352C42.9814 25.1284 42.4974 24.9035 42.1914 24.5661C41.9689 24.2961 41.8632 23.9362 41.8632 23.492C41.8632 23.1321 41.9133 22.7666 42.0078 22.4067C43.1149 17.1601 44.0662 11.891 44.8561 6.60504C44.0495 6.77936 43.3652 7.17299 42.7978 7.78594C42.2304 8.39888 41.8187 9.1018 41.5572 9.8947C41.2791 10.7663 41.14 11.8348 41.14 13.0944C41.14 13.6399 41.1511 14.1797 41.179 14.7139C41.0399 14.7477 40.9008 14.7645 40.7617 14.7645C40.3389 14.7645 39.944 14.6239 39.5768 14.3484C39.2096 14.0729 38.9426 13.7298 38.7757 13.3193C38.6088 12.9088 38.5254 12.4814 38.5254 12.0484C38.5254 11.4749 38.6255 10.9013 38.8202 10.3333C39.065 9.56854 39.4099 8.85438 39.855 8.19082C40.3 7.52726 40.8452 6.96493 41.5016 6.50381C42.4306 5.88524 43.4097 5.57596 44.4333 5.57596C44.9896 5.57596 45.5237 5.67717 46.0466 5.88524C46.4527 6.03144 46.7865 6.26763 47.048 6.58816C47.2927 6.92556 47.4151 7.36418 47.4151 7.8984C47.4151 8.26392 47.3762 8.62382 47.3039 8.98372L46.3748 14.6296C46.9534 13.4768 47.5709 12.3521 48.2273 11.2499C48.8838 10.1478 49.657 9.14117 50.5415 8.23019C50.8698 7.89279 51.2425 7.60599 51.6653 7.36418C52.1548 7.09426 52.6555 6.94244 53.1673 6.91994C53.8682 6.91994 54.4245 7.27983 54.8418 7.994C54.9419 8.18519 54.9864 8.37077 54.9864 8.56196C54.9864 8.68568 54.9642 8.79814 54.9141 8.89374C54.8306 9.05682 54.6916 9.14117 54.4857 9.14117C54.3689 9.14117 54.2576 9.1243 54.1353 9.09056C54.0184 9.05682 53.896 9.03995 53.7737 9.0287C53.5289 9.0287 53.2952 9.1018 53.0783 9.24239C52.8558 9.38859 52.6499 9.55168 52.4552 9.73163C50.4192 11.6098 48.7057 13.7523 47.3205 16.1591L47.2983 16.2097C47.1926 16.3728 47.137 16.5471 47.1258 16.7271C47.1258 16.8902 47.1648 17.0532 47.2482 17.2107L47.2594 17.2332C48.3831 19.893 49.8684 22.3392 51.7098 24.5604C52.0102 24.9372 52.344 25.2915 52.7056 25.6233C53.0672 25.955 53.4788 26.2025 53.935 26.3768C54.1464 26.4443 54.3077 26.5061 54.4245 26.5624C54.5859 26.6523 54.686 26.7985 54.7194 26.9954C54.7194 27.1753 54.6304 27.3271 54.4468 27.4452C54.2632 27.5633 54.0629 27.642 53.8404 27.6814C53.6179 27.7208 53.3954 27.7376 53.1673 27.7376L53.1617 27.7264Z" fill="white"/>
<path d="M61.5121 24.1049C60.9113 24.1049 60.3995 23.925 59.9822 23.5595C59.3981 23.0309 59.1033 22.2998 59.1033 21.3607V21.2145C58.942 21.5182 58.7751 21.8162 58.6026 22.103C58.3411 22.5698 58.0407 23.0084 57.6958 23.4133C57.4733 23.6438 57.2118 23.8182 56.9059 23.9306C56.5999 24.0431 56.2884 24.1049 55.9713 24.1049L55.6542 24.0937C55.1813 24.0262 54.7808 23.8519 54.4415 23.5651C53.8573 23.0365 53.5625 22.2942 53.5625 21.327C53.5681 20.7928 53.607 20.2586 53.6738 19.7187C53.7906 18.7459 53.963 17.7843 54.1967 16.8283C54.3024 16.3728 54.4192 15.9229 54.5416 15.4675C54.7641 14.6015 54.8976 14.0279 54.9477 13.7523C54.9477 13.713 54.9533 13.6792 54.9699 13.6511L54.9811 13.3812C54.9811 13.2237 54.9699 13.0494 54.9421 12.8638C54.9421 12.7176 54.9978 12.5883 55.1035 12.4814C55.2092 12.3746 55.3371 12.3184 55.4817 12.3184C55.5207 12.3184 55.5986 12.3352 55.7043 12.3634C55.81 12.3915 55.9045 12.414 55.988 12.4308C56.3941 12.4983 56.7612 12.6614 57.0895 12.9257C57.3899 13.2462 57.5401 13.6061 57.5401 13.9998C57.5345 14.2134 57.5011 14.4328 57.4399 14.6521L57.4177 14.7645C57.3676 14.9895 57.3175 15.2032 57.2564 15.4168L56.9726 16.6146C56.7501 17.5368 56.5443 18.4703 56.3496 19.4094L56.2995 19.6906C56.1771 20.2417 56.1159 20.7365 56.1159 21.1752L56.1382 21.6082C56.2216 22.013 56.3774 22.2155 56.6166 22.2155C56.7891 22.2155 56.9726 22.1311 57.1673 21.9681C57.618 21.5913 58.1019 20.8209 58.636 19.6569L59.1979 18.5097L59.5149 17.8293C59.6429 17.1601 59.9044 16.0748 60.2993 14.5677C60.405 14.1741 60.4773 13.7748 60.5219 13.3812L60.5107 13.0719L60.4718 12.847C60.4718 12.7064 60.5274 12.5827 60.6387 12.4758C60.7499 12.369 60.8779 12.3127 61.0225 12.3127L61.2172 12.3521L61.5343 12.4365C61.9404 12.5039 62.302 12.6614 62.608 12.9201C62.9195 13.2575 63.0697 13.6286 63.0697 14.0335C63.0697 14.1966 63.0363 14.4046 62.9696 14.6521L62.5079 16.6146C62.2853 17.5368 62.0795 18.4703 61.8848 19.4094C61.8292 19.6737 61.7791 19.938 61.7402 20.2136L61.7179 20.4104C61.679 20.714 61.6567 20.9896 61.6567 21.2258C61.6567 21.3551 61.6623 21.4845 61.679 21.6082C61.7513 22.013 61.9182 22.2155 62.1796 22.2155C62.4411 22.2155 62.7026 22.0468 62.9863 21.7094L63.0475 21.6363V21.625C63.0975 21.5744 63.1365 21.5182 63.1699 21.4507C63.5537 20.8828 63.8875 20.2867 64.1712 19.6569L65.1503 17.6156C65.2226 17.475 65.3283 17.3906 65.4674 17.3682L65.5786 17.3457C65.6454 17.3457 65.7177 17.3569 65.8012 17.385L65.8512 17.4075C65.9569 17.4413 66.0404 17.5312 66.1071 17.6774L66.1461 17.8743C66.1461 17.9305 66.1405 17.9811 66.1294 18.0261C66.1183 18.0711 66.1071 18.0992 66.0904 18.1104C66.0793 18.1217 66.0738 18.1386 66.0738 18.1554C65.4451 19.6569 64.7998 20.9671 64.1434 22.0974C63.6038 23.0927 63.0419 23.7057 62.4467 23.925C62.1463 24.0431 61.8347 24.0993 61.5176 24.0993L61.5121 24.1049Z" fill="white"/>
<path d="M68.3098 24.3243C68.0817 24.3243 67.9371 24.313 67.8815 24.2849H67.8092C66.9691 24.1781 66.3183 23.8013 65.851 23.149C65.5339 22.6485 65.3725 22.1087 65.3725 21.5407C65.3725 21.0065 65.4616 20.6747 65.6396 20.551C65.7453 20.4835 65.8565 20.4498 65.9678 20.4498L66.1013 20.461C66.2237 20.4835 66.3183 20.551 66.385 20.6522C66.4518 20.7534 66.4852 20.8659 66.4852 20.9896L66.474 21.1133C66.4518 21.237 66.4351 21.3607 66.424 21.4845C66.424 21.8162 66.5297 22.1312 66.7355 22.4348C66.9413 22.7385 67.1972 22.8903 67.4976 22.8903C67.6923 22.8903 67.8982 22.8003 68.1096 22.6204C68.41 22.3392 68.5602 21.9681 68.5602 21.4957C68.5602 21.1752 68.5045 20.8546 68.3877 20.5454C68.2431 20.0786 68.0595 19.6288 67.8481 19.2126L67.6256 18.7178C67.4642 18.3972 67.314 18.0711 67.175 17.7393C67.0025 17.3513 66.8634 16.952 66.7577 16.5415C66.5074 17.0701 66.2626 17.5987 66.0234 18.1329C65.94 18.3073 65.7842 18.3916 65.5617 18.3916C65.3837 18.3916 65.2446 18.3241 65.1445 18.1948C65.0888 18.1104 65.0499 18.0092 65.0332 17.8855C65.0332 17.7843 65.0555 17.6943 65.1055 17.5987C65.5283 16.5753 66.0123 15.5912 66.5463 14.6352C66.7911 14.1853 67.0804 13.7523 67.4142 13.3362C67.748 12.9257 68.1652 12.6333 68.6603 12.4702L68.7215 12.459C69.0664 12.3352 69.4169 12.2678 69.784 12.2621C70.1901 12.2621 70.5962 12.3465 70.9968 12.5208C71.0858 12.5433 71.1637 12.5771 71.2304 12.622C71.2972 12.6614 71.3472 12.6951 71.3917 12.7233C71.4307 12.7458 71.4752 12.7739 71.5197 12.802C71.5642 12.8301 71.6031 12.8695 71.6365 12.9201C71.7589 13.0269 71.8201 13.1563 71.8201 13.3137L71.809 13.4487C71.7867 13.5668 71.72 13.6624 71.6143 13.7411C71.5086 13.8198 71.3973 13.8592 71.2861 13.8592C71.2471 13.8592 71.2026 13.8536 71.1525 13.8367C71.0302 13.7804 70.8966 13.7355 70.7464 13.713C70.7297 13.7074 70.7075 13.7017 70.6852 13.7017L70.5128 13.6905L70.4127 13.7017C70.2068 13.7242 70.0399 13.8311 69.9009 14.011L69.8897 14.0335C69.7896 14.1741 69.734 14.2866 69.7173 14.3653C69.6116 14.6464 69.5559 14.9445 69.5559 15.265C69.5559 15.7261 69.6394 16.176 69.8118 16.609C69.9843 17.042 70.1734 17.475 70.3848 17.8968C70.6352 18.3747 70.8577 18.8808 71.0524 19.4151C71.2471 19.9493 71.3417 20.4891 71.3417 21.0346C71.3417 21.2595 71.3194 21.4788 71.2805 21.7038C71.4863 21.5126 71.6755 21.3101 71.8535 21.0964C72.6935 20.073 73.4167 18.909 74.0286 17.5987C74.151 17.4244 74.3012 17.34 74.4792 17.34C74.5794 17.34 74.6684 17.3625 74.7463 17.4019C74.9187 17.52 75.0022 17.6662 75.0022 17.8461C75.0022 17.9474 74.9799 18.0373 74.9298 18.1329C74.368 19.3588 73.667 20.506 72.827 21.5688C71.8424 22.8228 70.7297 23.6663 69.4892 24.0993C69.0998 24.2399 68.6992 24.3074 68.2931 24.3074L68.3098 24.3243Z" fill="white"/>
<path d="M79.8803 26.2813C79.1237 26.2813 78.3783 26.1463 77.6551 25.8764C76.5202 25.4153 75.5856 24.6899 74.8458 23.7002C73.722 22.1931 73.1602 20.4161 73.1602 18.3636C73.1602 17.492 73.2547 16.626 73.4439 15.7712C73.9835 13.3251 74.9793 11.1601 76.4368 9.28186C77.3714 8.06159 78.5174 7.10562 79.8692 6.41394C80.8316 5.91909 81.7717 5.67166 82.6952 5.67166C83.3794 5.67166 84.0192 5.81787 84.6144 6.11028C85.2097 6.4027 85.6881 6.83569 86.0441 7.4149C86.2222 7.71294 86.3112 8.14032 86.3112 8.70266C86.3112 8.95008 86.3056 9.18626 86.2889 9.40558L86.2778 9.60239C86.1888 11.0588 85.7994 12.6728 85.1151 14.4329C84.9983 14.7478 84.8648 15.0458 84.6979 15.3326C84.3419 15.9512 83.8134 16.2605 83.1235 16.2605C82.7397 16.2605 82.367 16.1817 81.9998 16.0243C81.7884 15.9512 81.5937 15.8387 81.4157 15.6869C81.2377 15.535 81.1487 15.3495 81.1487 15.1358C81.1654 14.939 81.2766 14.714 81.4936 14.4666C82.8287 12.8864 83.7132 11.0982 84.1471 9.10191C84.1861 8.90509 84.2083 8.70827 84.2083 8.5227C84.2083 8.25841 84.136 8.02223 83.9858 7.80854C83.7911 7.63422 83.5686 7.54986 83.3127 7.54986C82.9956 7.54986 82.6785 7.63422 82.3725 7.79729C81.1487 8.45523 80.1251 9.35496 79.2906 10.4909C77.5049 12.8696 76.5202 15.5519 76.3311 18.5323C76.3144 18.7629 76.3088 18.9878 76.3088 19.2127C76.3088 19.6513 76.3366 20.0787 76.3923 20.5117C76.6259 22.2268 77.3825 23.4752 78.6509 24.2681C79.2795 24.5999 79.9359 24.763 80.6313 24.763C81.1876 24.763 81.7328 24.6674 82.2668 24.4762C83.4462 24.0263 84.4642 23.3178 85.3098 22.3506C86.5226 21.0235 87.4126 19.5051 87.9745 17.79C88.1192 17.3233 88.3305 17.0758 88.6087 17.0477C88.7533 17.0477 88.8813 17.1208 88.987 17.2727C89.0704 17.3907 89.1094 17.5201 89.1094 17.6663C89.1094 17.8912 89.0537 18.1049 88.948 18.3074C87.9523 21.0178 86.5504 23.0872 84.7424 24.5212C84.0414 25.0723 83.2738 25.5053 82.4337 25.8146C81.5937 26.1238 80.7426 26.2757 79.8803 26.2757V26.2813Z" fill="white"/>
<path d="M90.2603 24.2622H90.0878C89.5816 24.2116 89.131 24.0372 88.7249 23.7336C88.3188 23.4299 88.0017 23.0531 87.7625 22.6089C87.3397 21.7204 87.1283 20.7757 87.1283 19.7803L87.1172 19.2742C87.1172 17.8403 87.3508 16.5582 87.8237 15.4166C88.4356 13.8702 89.3424 12.9198 90.5496 12.5768C90.7888 12.5206 91.028 12.4925 91.2728 12.4925C91.9014 12.4925 92.4855 12.6893 93.0196 13.0829C93.9542 13.9489 94.427 15.2929 94.427 17.1205C94.427 18.0821 94.2824 19.128 93.9987 20.2471C94.8721 19.8984 95.573 19.1787 96.1015 18.0708L96.1516 17.9696C96.3407 17.5422 96.5799 17.3286 96.8747 17.3286L97.0083 17.351C97.2197 17.4748 97.3254 17.6772 97.3254 17.9584C97.2864 18.1889 97.1974 18.4139 97.0583 18.6276C96.3518 19.8703 95.573 20.697 94.7219 21.0962C94.3714 21.2593 93.9987 21.3436 93.5981 21.3436C93.2866 22.1197 92.8471 22.8001 92.2797 23.3849C92.0015 23.6492 91.69 23.8629 91.3451 24.0204C91.0002 24.1834 90.6386 24.2622 90.2603 24.2622ZM90.8444 22.9294C90.9835 22.8901 91.1003 22.8057 91.2005 22.682C91.6232 22.1872 91.9348 21.6304 92.1406 21.0119L92.1517 20.9275C92.1462 20.8769 92.1128 20.8432 92.0683 20.815C91.3507 20.2246 90.9501 19.308 90.8611 18.0708C90.8389 17.8234 90.8222 17.5816 90.8222 17.3398C90.8222 16.4176 90.9501 15.366 91.2116 14.1907C90.6386 15.0455 90.2492 16.0914 90.0378 17.3173C89.8653 18.2902 89.7819 19.2011 89.7819 20.0615C89.7819 20.5789 89.8319 21.1018 89.9432 21.6192C89.9988 21.9735 90.1212 22.3052 90.3104 22.6089C90.4494 22.8226 90.6108 22.9294 90.7888 22.9294H90.85H90.8444ZM92.4966 19.741L92.6413 18.875C92.6635 18.6051 92.6858 18.3914 92.6969 18.2452C92.708 18.099 92.7192 17.9528 92.7192 17.8122C92.7192 17.6716 92.7303 17.4804 92.7358 17.233L92.6969 16.2826C92.6246 15.8159 92.569 15.4841 92.5245 15.2929C92.4744 15.0567 92.3798 14.7756 92.2407 14.4663C92.1684 14.7306 92.1128 14.9386 92.0794 15.0905C92.046 15.2423 92.0238 15.3772 92.0071 15.4897C91.9904 15.6022 91.9793 15.7428 91.9626 15.9002C91.9459 16.0577 91.9348 16.2601 91.907 16.5075C91.8847 16.7887 91.8736 17.0643 91.8736 17.3342C91.8736 17.5422 91.8791 17.7616 91.8958 18.0034C91.9292 18.4307 91.9737 18.7288 92.0293 18.8919C92.085 19.0549 92.1795 19.263 92.3131 19.5104V19.5217C92.3464 19.5891 92.3854 19.6454 92.4354 19.696L92.4466 19.7072C92.4466 19.7072 92.4688 19.7354 92.4855 19.7466L92.4966 19.741Z" fill="white"/>
<path d="M98.1229 30.4314C97.5221 30.4314 96.9713 30.1783 96.4707 29.6666C95.9978 29.138 95.6863 28.5251 95.5305 27.8278C95.3748 27.1248 95.2969 26.4219 95.2969 25.7134C95.3024 24.3469 95.4304 22.8961 95.6752 21.3665C95.8977 19.9663 96.1536 18.5717 96.4429 17.1771C96.6932 15.9231 96.9268 14.6747 97.1382 13.4207C97.3496 12.1667 97.4887 10.9071 97.5555 9.64181C97.5555 9.22006 97.7168 9.01199 98.0339 9.01199C98.223 9.01199 98.4122 9.06822 98.6069 9.17507L98.8405 9.28753C99.1076 9.40562 99.3579 9.54058 99.586 9.69242C99.9698 9.97358 100.159 10.4122 100.159 11.0139C100.159 11.3626 100.12 11.7056 100.037 12.0542C99.3579 15.5407 98.7515 19.0272 98.2175 22.5193C100.304 21.5858 101.895 20.1125 102.996 18.0825C103.096 17.8575 103.23 17.672 103.413 17.5145C103.536 17.4133 103.669 17.3683 103.814 17.3683C103.886 17.3683 103.959 17.3852 104.02 17.4189C104.175 17.5201 104.253 17.6551 104.253 17.8407C104.253 18.0375 104.192 18.2399 104.07 18.448C102.79 20.7367 100.988 22.4743 98.6569 23.6496C99.5637 24.8755 100.02 26.242 100.025 27.749C100.025 28.2776 99.9198 28.7894 99.7139 29.2898C99.5081 29.7903 99.1632 30.139 98.6792 30.347C98.5012 30.4145 98.312 30.4483 98.1173 30.4483L98.1229 30.4314ZM98.5012 28.4182C98.5902 28.4182 98.6681 28.3732 98.7293 28.2889C98.7905 28.2045 98.835 28.1089 98.8572 28.0077C98.924 27.7603 98.9574 27.5072 98.9574 27.2542C98.9574 26.9674 98.9073 26.6356 98.796 26.2645C98.6236 25.629 98.351 25.0667 97.9783 24.5718C97.8503 25.0273 97.7836 25.5109 97.7836 26.0283C97.7836 27.1249 97.9393 27.8671 98.2453 28.2664C98.312 28.3564 98.3955 28.407 98.5012 28.4126V28.4182Z" fill="white"/>
<path d="M104.955 30.4314C104.354 30.4314 103.803 30.1783 103.303 29.6666C102.83 29.138 102.518 28.5251 102.363 27.8278C102.207 27.1248 102.129 26.4219 102.129 25.7134C102.134 24.3469 102.262 22.8961 102.507 21.3665C102.73 19.9663 102.986 18.5717 103.275 17.1771C103.525 15.9231 103.759 14.6747 103.97 13.4207C104.182 12.1667 104.321 10.9071 104.388 9.64181C104.388 9.22006 104.549 9.01199 104.866 9.01199C105.055 9.01199 105.244 9.06822 105.439 9.17507L105.673 9.28753C105.94 9.40562 106.19 9.54058 106.418 9.69242C106.802 9.97358 106.991 10.4122 106.991 11.0139C106.991 11.3626 106.952 11.7056 106.869 12.0542C106.19 15.5407 105.584 19.0272 105.049 22.5193C107.136 21.5858 108.727 20.1125 109.828 18.0825C109.928 17.8575 110.062 17.672 110.245 17.5145C110.368 17.4133 110.501 17.3683 110.646 17.3683C110.718 17.3683 110.791 17.3852 110.852 17.4189C111.008 17.5201 111.085 17.6551 111.085 17.8407C111.085 18.0375 111.024 18.2399 110.902 18.448C109.622 20.7367 107.82 22.4743 105.489 23.6496C106.396 24.8755 106.852 26.242 106.857 27.749C106.857 28.2776 106.752 28.7894 106.546 29.2898C106.34 29.7903 105.995 30.139 105.511 30.347C105.333 30.4145 105.144 30.4483 104.949 30.4483L104.955 30.4314ZM105.333 28.4182C105.422 28.4182 105.5 28.3732 105.561 28.2889C105.622 28.2045 105.667 28.1089 105.689 28.0077C105.756 27.7603 105.789 27.5072 105.789 27.2542C105.789 26.9674 105.739 26.6356 105.628 26.2645C105.456 25.629 105.183 25.0667 104.81 24.5718C104.682 25.0273 104.616 25.5109 104.616 26.0283C104.616 27.1249 104.771 27.8671 105.077 28.2664C105.144 28.3564 105.228 28.407 105.333 28.4126V28.4182Z" fill="white"/>
<path d="M112.858 24.1051C112.647 24.1051 112.435 24.0826 112.224 24.0432C111.517 23.8801 110.917 23.5259 110.427 22.9804C109.615 22.0919 109.203 20.9729 109.203 19.6176C109.203 18.701 109.364 17.7957 109.693 16.9015C110.004 15.8612 110.494 14.939 111.172 14.1236C111.896 13.2745 112.797 12.7684 113.876 12.6053C114.004 12.5884 114.132 12.5828 114.254 12.5828C114.711 12.5828 115.083 12.684 115.378 12.8865C115.673 13.0889 115.89 13.3532 116.029 13.6906C116.168 14.0224 116.235 14.3823 116.235 14.7703C116.235 15.5013 116.001 16.2155 115.528 16.9072C115.111 17.4245 114.627 17.8688 114.076 18.2399C113.526 18.611 112.947 18.9484 112.352 19.2521C112.263 19.2858 112.19 19.3365 112.129 19.4152C112.063 19.5614 112.029 19.8369 112.029 20.2306C112.029 20.8998 112.174 21.5464 112.458 22.1819C112.741 22.4349 113.064 22.5643 113.425 22.5643C113.954 22.5249 114.432 22.3281 114.855 21.9851C115.517 21.4733 116.085 20.8716 116.563 20.1743C117.041 19.477 117.459 18.746 117.826 17.9812C118.032 17.5707 118.26 17.3627 118.51 17.3627C118.705 17.3683 118.844 17.4751 118.927 17.6719C118.966 17.7563 118.988 17.8463 118.988 17.9419C118.988 18.2793 118.577 19.1003 117.754 20.3993C117.442 20.8998 117.108 21.389 116.741 21.8557C116.001 22.8117 115.172 23.4696 114.26 23.8352C113.804 24.0151 113.336 24.1051 112.869 24.1051H112.858ZM112.296 18.0487C113.136 17.6776 113.854 17.149 114.449 16.4685C114.733 16.1649 114.944 15.8106 115.072 15.417C115.106 15.2989 115.122 15.1639 115.122 14.9952C115.122 14.7984 115.089 14.6016 115.016 14.416C114.95 14.2248 114.827 14.1292 114.655 14.1292C114.46 14.1292 114.282 14.2192 114.126 14.3991C113.448 15.0739 112.964 15.8781 112.674 16.8116C112.53 17.2221 112.402 17.6326 112.296 18.0487Z" fill="white"/>
<path d="M120.87 24.1051C120.658 24.1051 120.447 24.0826 120.236 24.0432C119.529 23.8801 118.928 23.5259 118.439 22.9804C117.627 22.0919 117.215 20.9729 117.215 19.6176C117.215 18.701 117.376 17.7957 117.704 16.9015C118.016 15.8612 118.505 14.939 119.184 14.1236C119.907 13.2745 120.809 12.7684 121.888 12.6053C122.016 12.5884 122.144 12.5828 122.266 12.5828C122.722 12.5828 123.095 12.684 123.39 12.8865C123.685 13.0889 123.902 13.3532 124.041 13.6906C124.18 14.0224 124.247 14.3823 124.247 14.7703C124.247 15.5013 124.013 16.2155 123.54 16.9072C123.123 17.4245 122.639 17.8688 122.088 18.2399C121.537 18.611 120.959 18.9484 120.364 19.2521C120.275 19.2858 120.202 19.3365 120.141 19.4152C120.074 19.5614 120.041 19.8369 120.041 20.2306C120.041 20.8998 120.185 21.5464 120.469 22.1819C120.753 22.4349 121.076 22.5643 121.437 22.5643C121.966 22.5249 122.444 22.3281 122.867 21.9851C123.529 21.4733 124.096 20.8716 124.575 20.1743C125.053 19.477 125.47 18.746 125.838 17.9812C126.043 17.5707 126.271 17.3627 126.522 17.3627C126.717 17.3683 126.856 17.4751 126.939 17.6719C126.978 17.7563 127 17.8463 127 17.9419C127 18.2793 126.589 19.1003 125.765 20.3993C125.454 20.8998 125.12 21.389 124.753 21.8557C124.013 22.8117 123.184 23.4696 122.272 23.8352C121.815 24.0151 121.348 24.1051 120.881 24.1051H120.87ZM120.308 18.0487C121.148 17.6776 121.866 17.149 122.461 16.4685C122.744 16.1649 122.956 15.8106 123.084 15.417C123.117 15.2989 123.134 15.1639 123.134 14.9952C123.134 14.7984 123.101 14.6016 123.028 14.416C122.961 14.2248 122.839 14.1292 122.667 14.1292C122.472 14.1292 122.294 14.2192 122.138 14.3991C121.459 15.0739 120.975 15.8781 120.686 16.8116C120.542 17.2221 120.414 17.6326 120.308 18.0487Z" fill="white"/>
</g>
<defs>
<clipPath id="clip0_1009_657">
<rect width="127" height="36" fill="white"/>
</clipPath>
</defs>
</svg>
