<svg width="40" height="43" viewBox="0 0 40 43" fill="none" xmlns="http://www.w3.org/2000/svg">
<g opacity="0.25" filter="url(#filter0_f_939_13606)">
<rect x="6.02734" y="20" width="27.2489" height="17.0306" rx="8.51528" fill="url(#paint0_linear_939_13606)"/>
</g>
<rect x="5.19922" y="5.19995" width="29.5196" height="29.5196" rx="14.7598" fill="url(#paint1_linear_939_13606)"/>
<g filter="url(#filter1_i_939_13606)">
<path d="M13.0909 25.6032H15.6364V19.4214L12 16.6941V24.5123C12 25.1159 12.4891 25.6032 13.0909 25.6032Z" fill="#4285F4"/>
<path d="M24.3633 25.6032H26.9087C27.5124 25.6032 27.9996 25.1141 27.9996 24.5123V16.6941L24.3633 19.4214" fill="#34A853"/>
<path d="M24.3633 14.6941V19.4214L27.9996 16.6941V15.2396C27.9996 13.8905 26.4596 13.1214 25.3815 13.9305" fill="#FBBC04"/>
<path d="M15.6367 19.4214V14.6941L20.0004 17.9668L24.364 14.6941V19.4214L20.0004 22.6941" fill="#EA4335"/>
<path d="M12 15.2396V16.6941L15.6364 19.4214V14.6941L14.6182 13.9305C13.5382 13.1214 12 13.8905 12 15.2396Z" fill="#C5221F"/>
</g>
<defs>
<filter id="filter0_f_939_13606" x="0.567344" y="14.54" width="38.169" height="27.9505" filterUnits="userSpaceOnUse" color-interpolation-filters="sRGB">
<feFlood flood-opacity="0" result="BackgroundImageFix"/>
<feBlend mode="normal" in="SourceGraphic" in2="BackgroundImageFix" result="shape"/>
<feGaussianBlur stdDeviation="2.73" result="effect1_foregroundBlur_939_13606"/>
</filter>
<filter id="filter1_i_939_13606" x="10.8008" y="10.8" width="18" height="18.5" filterUnits="userSpaceOnUse" color-interpolation-filters="sRGB">
<feFlood flood-opacity="0" result="BackgroundImageFix"/>
<feBlend mode="normal" in="SourceGraphic" in2="BackgroundImageFix" result="shape"/>
<feColorMatrix in="SourceAlpha" type="matrix" values="0 0 0 0 0 0 0 0 0 0 0 0 0 0 0 0 0 0 127 0" result="hardAlpha"/>
<feOffset dy="0.5"/>
<feGaussianBlur stdDeviation="1.25"/>
<feComposite in2="hardAlpha" operator="arithmetic" k2="-1" k3="1"/>
<feColorMatrix type="matrix" values="0 0 0 0 0 0 0 0 0 0 0 0 0 0 0 0 0 0 0.1 0"/>
<feBlend mode="normal" in2="shape" result="effect1_innerShadow_939_13606"/>
</filter>
<linearGradient id="paint0_linear_939_13606" x1="21.535" y1="37.5385" x2="15.9808" y2="17.9617" gradientUnits="userSpaceOnUse">
<stop/>
<stop offset="1" stop-color="#323232"/>
</linearGradient>
<linearGradient id="paint1_linear_939_13606" x1="21.9992" y1="35.6" x2="8.19922" y2="5.19995" gradientUnits="userSpaceOnUse">
<stop/>
<stop offset="1" stop-color="#323232"/>
</linearGradient>
</defs>
</svg>
