<svg width="40" height="43" viewBox="0 0 40 43" fill="none" xmlns="http://www.w3.org/2000/svg">
<g opacity="0.25" filter="url(#filter0_f_939_13605)">
<rect x="6.02734" y="20" width="27.2489" height="17.0306" rx="8.51528" fill="url(#paint0_linear_939_13605)"/>
</g>
<rect x="5.19922" y="5.19995" width="29.5196" height="29.5196" rx="14.7598" fill="url(#paint1_linear_939_13605)"/>
<g clip-path="url(#clip0_939_13605)" filter="url(#filter1_i_939_13605)">
<path d="M28.4564 20.1139C28.459 20.2898 28.437 20.4654 28.3903 20.6352C28.3437 20.8051 28.2731 20.9678 28.1805 21.1181C28.0881 21.2683 27.9748 21.4051 27.8439 21.5242C27.7131 21.6433 27.566 21.7434 27.407 21.8217C27.4106 21.8686 27.4135 21.9158 27.4151 21.963C27.419 22.0571 27.419 22.1514 27.4151 22.2455C27.4135 22.2927 27.4106 22.3399 27.407 22.3867C27.407 25.2631 24.0257 27.6001 19.8541 27.6001C15.6825 27.6001 12.3011 25.2631 12.3011 22.3867C12.2976 22.3399 12.2946 22.2927 12.293 22.2455C12.2891 22.1514 12.2891 22.0571 12.293 21.963C12.2946 21.9158 12.2976 21.8686 12.3011 21.8217C12.052 21.7082 11.8307 21.5424 11.6526 21.3358C11.4745 21.1291 11.3438 20.8866 11.2696 20.625C11.1955 20.3632 11.1797 20.0886 11.2233 19.8202C11.2669 19.5518 11.3689 19.296 11.5222 19.0706C11.6753 18.8452 11.8761 18.6555 12.1106 18.5147C12.3451 18.3739 12.6077 18.2853 12.8802 18.2552C13.1527 18.2249 13.4286 18.2537 13.6888 18.3396C13.949 18.4256 14.1872 18.5665 14.3869 18.7528C14.7577 18.5037 15.1462 18.2815 15.5493 18.0879C15.9526 17.8947 16.3694 17.7303 16.7966 17.5968C17.2238 17.4632 17.6604 17.3608 18.1025 17.2899C18.5446 17.2189 18.9916 17.1801 19.4395 17.1733L20.3982 12.7175C20.4089 12.6659 20.4299 12.6171 20.4601 12.5734C20.4899 12.5301 20.5284 12.4928 20.5728 12.4643C20.6175 12.4357 20.6673 12.4161 20.7198 12.4065C20.772 12.3972 20.8257 12.3981 20.8775 12.4094L24.0516 13.0386C24.3719 12.4932 25.0443 12.2594 25.638 12.4867C26.2317 12.714 26.5711 13.3352 26.4383 13.9522C26.3058 14.5692 25.7403 14.9994 25.1049 14.9669C24.4691 14.9345 23.9512 14.4491 23.8832 13.8219L21.1107 13.244L20.2686 17.2504C20.7111 17.2597 21.1525 17.3008 21.5891 17.373C22.4634 17.5175 23.3121 17.7863 24.1089 18.1711C24.5069 18.363 24.8904 18.5832 25.2564 18.8298C25.5196 18.5794 25.8503 18.4098 26.2087 18.3415C26.567 18.2731 26.9376 18.3089 27.2758 18.4446C27.6141 18.5803 27.9056 18.81 28.115 19.1062C28.3246 19.4024 28.4431 19.7524 28.4564 20.1139ZM15.5995 21.8895C15.665 22.0452 15.7602 22.1867 15.8807 22.3058C16.0008 22.4253 16.1437 22.5196 16.3008 22.5845C16.458 22.6489 16.6265 22.6821 16.7966 22.6821C17.3207 22.6821 17.7929 22.3691 17.9937 21.8895C18.1942 21.4095 18.0831 20.8574 17.7126 20.4901C17.342 20.1229 16.785 20.0128 16.3008 20.2115C15.8169 20.4105 15.5011 20.8786 15.5011 21.398C15.5011 21.5665 15.5344 21.7335 15.5995 21.8895ZM23.0197 24.9719C23.0861 24.9077 23.124 24.8201 23.1253 24.7283C23.1266 24.6361 23.0906 24.5475 23.0259 24.4817C22.9611 24.4159 22.8727 24.3784 22.78 24.3771C22.6871 24.3758 22.5977 24.4114 22.5229 24.467C22.3281 24.6055 22.1218 24.7274 21.9062 24.8313C21.6906 24.9354 21.4666 25.0212 21.2364 25.0878C21.0064 25.1543 20.771 25.2015 20.5329 25.2288C20.2946 25.256 20.0546 25.2631 19.8152 25.2503C19.5762 25.2609 19.3365 25.2512 19.0991 25.2217C18.8616 25.1924 18.6271 25.143 18.3982 25.074C18.1689 25.0053 17.9464 24.9174 17.7323 24.8114C17.5182 24.7055 17.3135 24.5816 17.1205 24.4413C17.0535 24.3867 16.9683 24.3588 16.8815 24.363C16.7947 24.3671 16.7127 24.4034 16.6512 24.4641C16.59 24.5251 16.5534 24.6063 16.5492 24.6923C16.545 24.7784 16.5731 24.8628 16.6282 24.9292C16.8559 25.0994 17.0978 25.2496 17.3514 25.3787C17.605 25.5077 17.8696 25.6146 18.1417 25.6987C18.4138 25.7828 18.6926 25.8435 18.9754 25.8804C19.2581 25.917 19.5435 25.9295 19.8282 25.918C20.1129 25.9295 20.3982 25.917 20.6809 25.8804C21.2473 25.8066 21.7966 25.6369 22.3049 25.3787C22.5585 25.2496 22.8004 25.0994 23.0281 24.9292L23.0197 24.9719ZM22.782 22.7848C22.9575 22.7867 23.1318 22.753 23.294 22.6863C23.4563 22.6192 23.603 22.5203 23.7254 22.3954C23.8479 22.2705 23.9431 22.1222 24.0059 21.9595C24.0688 21.7969 24.0976 21.6233 24.0905 21.4494C24.0905 20.9299 23.7747 20.4619 23.2908 20.2629C22.8066 20.0641 22.2495 20.1743 21.879 20.5415C21.5085 20.9088 21.3974 21.4609 21.5979 21.9408C21.7987 22.4204 22.2709 22.7334 22.7949 22.7334L22.782 22.7848Z" fill="white"/>
</g>
<defs>
<filter id="filter0_f_939_13605" x="0.567344" y="14.54" width="38.169" height="27.9505" filterUnits="userSpaceOnUse" color-interpolation-filters="sRGB">
<feFlood flood-opacity="0" result="BackgroundImageFix"/>
<feBlend mode="normal" in="SourceGraphic" in2="BackgroundImageFix" result="shape"/>
<feGaussianBlur stdDeviation="2.73" result="effect1_foregroundBlur_939_13605"/>
</filter>
<filter id="filter1_i_939_13605" x="10.8008" y="10.8" width="18" height="18.5" filterUnits="userSpaceOnUse" color-interpolation-filters="sRGB">
<feFlood flood-opacity="0" result="BackgroundImageFix"/>
<feBlend mode="normal" in="SourceGraphic" in2="BackgroundImageFix" result="shape"/>
<feColorMatrix in="SourceAlpha" type="matrix" values="0 0 0 0 0 0 0 0 0 0 0 0 0 0 0 0 0 0 127 0" result="hardAlpha"/>
<feOffset dy="0.5"/>
<feGaussianBlur stdDeviation="1.25"/>
<feComposite in2="hardAlpha" operator="arithmetic" k2="-1" k3="1"/>
<feColorMatrix type="matrix" values="0 0 0 0 0 0 0 0 0 0 0 0 0 0 0 0 0 0 0.1 0"/>
<feBlend mode="normal" in2="shape" result="effect1_innerShadow_939_13605"/>
</filter>
<linearGradient id="paint0_linear_939_13605" x1="21.535" y1="37.5385" x2="15.9808" y2="17.9617" gradientUnits="userSpaceOnUse">
<stop stop-color="#FF4500"/>
<stop offset="1" stop-color="#F04100"/>
</linearGradient>
<linearGradient id="paint1_linear_939_13605" x1="21.9992" y1="35.6" x2="8.19922" y2="5.19995" gradientUnits="userSpaceOnUse">
<stop stop-color="#FF4500"/>
<stop offset="1" stop-color="#F04100"/>
</linearGradient>
<clipPath id="clip0_939_13605">
<rect width="18" height="18" fill="white" transform="translate(10.8008 10.8)"/>
</clipPath>
</defs>
</svg>
