<svg width="40" height="43" viewBox="0 0 40 43" fill="none" xmlns="http://www.w3.org/2000/svg">
<g opacity="0.25" filter="url(#filter0_f_939_13608)">
<rect x="6.02734" y="20" width="27.2489" height="17.0306" rx="8.51528" fill="url(#paint0_linear_939_13608)"/>
</g>
<rect x="5.19922" y="5.19995" width="29.5196" height="29.5196" rx="14.7598" fill="url(#paint1_linear_939_13608)"/>
<g filter="url(#filter1_i_939_13608)">
<path d="M12.9809 19.0261C12.9809 19.0261 20.0574 15.8878 22.5116 14.7827C23.4524 14.3408 26.6429 12.9262 26.6429 12.9262C26.6429 12.9262 28.1155 12.3075 27.9927 13.8103C27.9518 14.4292 27.6246 16.595 27.2974 18.9377C26.8065 22.2529 26.2747 25.8774 26.2747 25.8774C26.2747 25.8774 26.1929 26.8941 25.4976 27.0709C24.8022 27.2477 23.6569 26.4521 23.4524 26.2753C23.2887 26.1427 20.3846 24.1536 19.3211 23.1811C19.0347 22.9159 18.7075 22.3855 19.3619 21.7667C20.8345 20.308 22.5934 18.4957 23.6569 17.3465C24.1477 16.816 24.6386 15.5784 22.5934 17.0812C19.6892 19.2472 16.8259 21.2805 16.8259 21.2805C16.8259 21.2805 16.1714 21.7225 14.9443 21.3246C13.7172 20.9269 12.2855 20.3964 12.2855 20.3964C12.2855 20.3964 11.3039 19.7334 12.9809 19.0261Z" fill="white"/>
</g>
<defs>
<filter id="filter0_f_939_13608" x="0.567344" y="14.54" width="38.169" height="27.9505" filterUnits="userSpaceOnUse" color-interpolation-filters="sRGB">
<feFlood flood-opacity="0" result="BackgroundImageFix"/>
<feBlend mode="normal" in="SourceGraphic" in2="BackgroundImageFix" result="shape"/>
<feGaussianBlur stdDeviation="2.73" result="effect1_foregroundBlur_939_13608"/>
</filter>
<filter id="filter1_i_939_13608" x="10.8008" y="10.8" width="18" height="18.5" filterUnits="userSpaceOnUse" color-interpolation-filters="sRGB">
<feFlood flood-opacity="0" result="BackgroundImageFix"/>
<feBlend mode="normal" in="SourceGraphic" in2="BackgroundImageFix" result="shape"/>
<feColorMatrix in="SourceAlpha" type="matrix" values="0 0 0 0 0 0 0 0 0 0 0 0 0 0 0 0 0 0 127 0" result="hardAlpha"/>
<feOffset dy="0.5"/>
<feGaussianBlur stdDeviation="1.25"/>
<feComposite in2="hardAlpha" operator="arithmetic" k2="-1" k3="1"/>
<feColorMatrix type="matrix" values="0 0 0 0 0 0 0 0 0 0 0 0 0 0 0 0 0 0 0.1 0"/>
<feBlend mode="normal" in2="shape" result="effect1_innerShadow_939_13608"/>
</filter>
<linearGradient id="paint0_linear_939_13608" x1="8.42734" y1="21.2692" x2="20.7628" y2="42.6106" gradientUnits="userSpaceOnUse">
<stop stop-color="#0088CC"/>
<stop offset="1" stop-color="#0083C5"/>
</linearGradient>
<linearGradient id="paint1_linear_939_13608" x1="7.79922" y1="7.39995" x2="32.3992" y2="34" gradientUnits="userSpaceOnUse">
<stop stop-color="#0088CC"/>
<stop offset="1" stop-color="#0083C5"/>
</linearGradient>
</defs>
</svg>
