<svg width="32" height="33" viewBox="0 0 32 33" fill="none" xmlns="http://www.w3.org/2000/svg">
<path d="M4.36603 22.0651C4.25492 22.0651 4.14697 22.0281 4.05924 21.9599C3.9715 21.8917 3.90897 21.7963 3.88153 21.6886C3.27755 19.2954 3.39269 16.7772 4.21253 14.4491C4.25675 14.324 4.34884 14.2217 4.46854 14.1645C4.58823 14.1074 4.72573 14.1001 4.85078 14.1443C4.97583 14.1886 5.07819 14.2807 5.13534 14.4003C5.19249 14.52 5.19975 14.6575 5.15553 14.7826C4.40117 16.9238 4.29491 19.2398 4.85003 21.4411C4.86877 21.5149 4.87039 21.592 4.85477 21.6666C4.83916 21.7411 4.80672 21.8111 4.75993 21.8712C4.71315 21.9313 4.65325 21.98 4.58481 22.0134C4.51637 22.0468 4.44119 22.0641 4.36503 22.0641L4.36603 22.0651Z" fill="white"/>
<path d="M27.9137 20.5555C27.843 20.5556 27.7731 20.5407 27.7085 20.5117C27.644 20.4828 27.5863 20.4405 27.5394 20.3876C27.4924 20.3347 27.4572 20.2725 27.436 20.205C27.4149 20.1375 27.4083 20.0663 27.4167 19.996C27.4715 19.5379 27.499 19.0769 27.4992 18.6155C27.4992 18.1524 27.4713 17.6898 27.4157 17.23C27.4078 17.1648 27.4129 17.0987 27.4306 17.0355C27.4482 16.9722 27.4782 16.9131 27.5187 16.8614C27.5592 16.8097 27.6096 16.7665 27.6668 16.7343C27.724 16.7021 27.787 16.6814 27.8522 16.6735C27.9174 16.6657 27.9835 16.6707 28.0468 16.6884C28.11 16.706 28.1692 16.736 28.2209 16.7765C28.2726 16.8171 28.3157 16.8674 28.348 16.9246C28.3802 16.9818 28.4008 17.0448 28.4087 17.11C28.5291 18.1081 28.5291 19.117 28.4087 20.115C28.3942 20.2362 28.3358 20.3479 28.2447 20.4291C28.1535 20.5102 28.0358 20.5552 27.9137 20.5555Z" fill="white"/>
<path d="M16 15.1152H10C9.60218 15.1152 9.22064 14.9572 8.93934 14.6759C8.65804 14.3946 8.5 14.0131 8.5 13.6152V12.6152C8.5 12.4826 8.55268 12.3554 8.64645 12.2617C8.74021 12.1679 8.86739 12.1152 9 12.1152H17C17.1326 12.1152 17.2598 12.1679 17.3536 12.2617C17.4473 12.3554 17.5 12.4826 17.5 12.6152V13.6152C17.5 14.0131 17.342 14.3946 17.0607 14.6759C16.7794 14.9572 16.3978 15.1152 16 15.1152ZM9.5 13.1152V13.6152C9.5 13.7478 9.55268 13.875 9.64645 13.9688C9.74021 14.0626 9.86739 14.1152 10 14.1152H16C16.1326 14.1152 16.2598 14.0626 16.3536 13.9688C16.4473 13.875 16.5 13.7478 16.5 13.6152V13.1152H9.5Z" fill="white"/>
<path d="M13 24.1152C11.8069 24.1139 10.6631 23.6394 9.81948 22.7958C8.97585 21.9521 8.50132 20.8083 8.5 19.6152V18.1152C8.5 17.9826 8.55268 17.8554 8.64645 17.7617C8.74021 17.6679 8.86739 17.6152 9 17.6152H17C17.1326 17.6152 17.2598 17.6679 17.3536 17.7617C17.4473 17.8554 17.5 17.9826 17.5 18.1152V19.6152C17.4987 20.8083 17.0241 21.9521 16.1805 22.7958C15.3369 23.6394 14.1931 24.1139 13 24.1152ZM9.5 18.6152V19.6152C9.5 20.5435 9.86875 21.4337 10.5251 22.0901C11.1815 22.7465 12.0717 23.1152 13 23.1152C13.9283 23.1152 14.8185 22.7465 15.4749 22.0901C16.1313 21.4337 16.5 20.5435 16.5 19.6152V18.6152H9.5Z" fill="white"/>
<path d="M13 18.6152C12.8674 18.6152 12.7402 18.5626 12.6464 18.4688C12.5527 18.375 12.5 18.2478 12.5 18.1152V14.6152C12.5 14.4826 12.5527 14.3554 12.6464 14.2617C12.7402 14.1679 12.8674 14.1152 13 14.1152C13.1326 14.1152 13.2598 14.1679 13.3536 14.2617C13.4473 14.3554 13.5 14.4826 13.5 14.6152V18.1152C13.5 18.2478 13.4473 18.375 13.3536 18.4688C13.2598 18.5626 13.1326 18.6152 13 18.6152Z" fill="white"/>
<path d="M23.93 28.1152H8.07C7.94877 28.1152 7.83167 28.0711 7.7405 27.9912C6.42098 26.8392 5.36388 25.4176 4.6405 23.8222C4.60588 23.7461 4.59091 23.6625 4.59694 23.5791C4.60298 23.4957 4.62983 23.4152 4.67505 23.3449C4.72026 23.2745 4.7824 23.2166 4.85576 23.1765C4.92913 23.1364 5.01138 23.1153 5.095 23.1152H18.5C18.8978 23.1152 19.2794 22.9572 19.5607 22.6759C19.842 22.3946 20 22.0131 20 21.6152V14.6152C20 14.2174 19.842 13.8359 19.5607 13.5546C19.2794 13.2733 18.8978 13.1152 18.5 13.1152H7C6.3372 13.1144 5.70178 12.8508 5.23311 12.3821C4.76444 11.9135 4.50079 11.278 4.5 10.6152V7.61523C4.50079 6.95244 4.76444 6.31701 5.23311 5.84834C5.70178 5.37968 6.3372 5.11603 7 5.11523H24.5C25.1628 5.11603 25.7982 5.37968 26.2669 5.84834C26.7356 6.31701 26.9992 6.95244 27 7.61523V24.4152C27.0002 24.4994 26.9788 24.5822 26.938 24.6557C26.2466 25.915 25.3403 27.0437 24.26 27.9907C24.1688 28.0709 24.0515 28.1152 23.93 28.1152ZM8.2605 27.1152H23.7395C24.6399 26.2993 25.4032 25.3437 26 24.2852V7.61523C26 7.21741 25.842 6.83588 25.5607 6.55457C25.2794 6.27327 24.8978 6.11523 24.5 6.11523H7C6.60218 6.11523 6.22064 6.27327 5.93934 6.55457C5.65804 6.83588 5.5 7.21741 5.5 7.61523V10.6152C5.5 11.0131 5.65804 11.3946 5.93934 11.6759C6.22064 11.9572 6.60218 12.1152 7 12.1152H18.5C19.1628 12.116 19.7982 12.3797 20.2669 12.8483C20.7356 13.317 20.9992 13.9524 21 14.6152V21.6152C20.9992 22.278 20.7356 22.9135 20.2669 23.3821C19.7982 23.8508 19.1628 24.1144 18.5 24.1152H5.9C6.51003 25.2425 7.30837 26.2571 8.2605 27.1152Z" fill="white"/>
<path d="M23.5 24.1152C23.1044 24.1152 22.7178 23.9979 22.3889 23.7782C22.06 23.5584 21.8036 23.2461 21.6522 22.8806C21.5009 22.5152 21.4613 22.113 21.5384 21.7251C21.6156 21.3371 21.8061 20.9807 22.0858 20.701C22.3655 20.4213 22.7219 20.2308 23.1098 20.1537C23.4978 20.0765 23.8999 20.1161 24.2654 20.2675C24.6308 20.4189 24.9432 20.6752 25.1629 21.0041C25.3827 21.333 25.5 21.7197 25.5 22.1152C25.5 22.6457 25.2893 23.1544 24.9142 23.5294C24.5391 23.9045 24.0304 24.1152 23.5 24.1152ZM23.5 21.1152C23.3022 21.1152 23.1089 21.1739 22.9444 21.2838C22.78 21.3936 22.6518 21.5498 22.5761 21.7326C22.5004 21.9153 22.4806 22.1163 22.5192 22.3103C22.5578 22.5043 22.653 22.6825 22.7929 22.8223C22.9327 22.9622 23.1109 23.0574 23.3049 23.096C23.4989 23.1346 23.7 23.1148 23.8827 23.0391C24.0654 22.9634 24.2216 22.8353 24.3315 22.6708C24.4414 22.5064 24.5 22.313 24.5 22.1152C24.5 21.85 24.3946 21.5957 24.2071 21.4081C24.0196 21.2206 23.7652 21.1152 23.5 21.1152Z" fill="white"/>
<path d="M23.5 19.1152C23.1022 19.1152 22.7206 18.9572 22.4393 18.6759C22.158 18.3946 22 18.0131 22 17.6152V11.1152C22 10.7174 22.158 10.3359 22.4393 10.0546C22.7206 9.77327 23.1022 9.61523 23.5 9.61523C23.8978 9.61523 24.2794 9.77327 24.5607 10.0546C24.842 10.3359 25 10.7174 25 11.1152V17.6152C25 18.0131 24.842 18.3946 24.5607 18.6759C24.2794 18.9572 23.8978 19.1152 23.5 19.1152ZM23.5 10.6152C23.3674 10.6152 23.2402 10.6679 23.1464 10.7617C23.0527 10.8554 23 10.9826 23 11.1152V17.6152C23 17.7478 23.0527 17.875 23.1464 17.9688C23.2402 18.0626 23.3674 18.1152 23.5 18.1152C23.6326 18.1152 23.7598 18.0626 23.8536 17.9688C23.9473 17.875 24 17.7478 24 17.6152V11.1152C24 10.9826 23.9473 10.8554 23.8536 10.7617C23.7598 10.6679 23.6326 10.6152 23.5 10.6152Z" fill="white"/>
</svg>
