<svg width="33" height="33" viewBox="0 0 33 33" fill="none" xmlns="http://www.w3.org/2000/svg">
<path d="M21.3605 19.875H21.5C21.6185 19.875 21.7299 19.8191 21.8012 19.7239C21.8717 19.6286 21.8934 19.5056 21.8593 19.3924L20.7665 15.75L21.8593 12.1076C21.8934 11.994 21.8717 11.8714 21.8012 11.7761C21.7299 11.6809 21.6185 11.625 21.5 11.625H20.9878L23.7215 5.01825C23.7695 4.90237 23.7564 4.77038 23.6867 4.6665C23.6173 4.56262 23.5003 4.5 23.375 4.5H9.12505C8.9998 4.5 8.8828 4.56262 8.81342 4.6665C8.74367 4.77038 8.73055 4.90237 8.77855 5.01825L11.5123 11.625H11C10.8815 11.625 10.7702 11.6809 10.6989 11.7761C10.6284 11.8714 10.6067 11.9944 10.6408 12.1076L11.7335 15.75L10.6408 19.3924C10.6067 19.506 10.6284 19.6286 10.6989 19.7239C10.7702 19.8191 10.8815 19.875 11 19.875H11.1395C8.7508 24.8269 8.75005 25.6114 8.75005 25.875C8.75005 27.5899 9.91705 28.3346 10.5343 28.4888C10.5639 28.4963 10.5943 28.5 10.625 28.5H21.875C21.9058 28.5 21.9362 28.4963 21.9658 28.4888C22.583 28.3346 23.75 27.5899 23.75 25.875C23.75 25.6114 23.7493 24.8272 21.3605 19.875ZM9.68605 5.25H22.814L20.1763 11.625H12.3242L9.68605 5.25ZM12.4843 15.8576C12.5053 15.7875 12.5053 15.7125 12.4843 15.6424L11.504 12.375H20.996L20.096 15.375H19.181C19.0258 14.9396 18.6133 14.625 18.125 14.625C17.6368 14.625 17.2243 14.9396 17.069 15.375H14.75V16.125H17.069C17.1287 16.2922 17.2239 16.4415 17.3499 16.5615C17.0012 17.1026 17 17.9985 17 18.375H17.75C17.75 17.3389 17.9383 16.875 18.125 16.875C18.3118 16.875 18.5 17.3389 18.5 18.375H19.25C19.25 17.9985 19.2489 17.1026 18.9002 16.5615C19.0262 16.4415 19.1214 16.2919 19.181 16.125H20.096L20.996 19.125H11.504L12.4843 15.8576ZM17.75 15.75C17.75 15.5434 17.918 15.375 18.125 15.375C18.332 15.375 18.5 15.5434 18.5 15.75C18.5 15.9566 18.332 16.125 18.125 16.125C17.918 16.125 17.75 15.9566 17.75 15.75ZM21.8207 27.75H10.6794C10.4765 27.6825 9.50005 27.2835 9.50005 25.875C9.50005 25.5998 9.7483 24.4579 11.9732 19.875H20.5269C22.7525 24.4586 23 25.5998 23 25.875C23 27.2843 22.0269 27.6817 21.8207 27.75Z" fill="white" stroke="white" stroke-width="0.2"/>
<path d="M13.25 15.375H14V16.125H13.25V15.375Z" fill="white" stroke="white" stroke-width="0.2"/>
</svg>
