<svg width="25" height="24" viewBox="0 0 25 24" fill="none" xmlns="http://www.w3.org/2000/svg">
<g clip-path="url(#clip0_893_5156)">
<path d="M12.5 16C10.9178 16 9.37103 15.5308 8.05544 14.6518C6.73985 13.7727 5.71447 12.5233 5.10897 11.0615C4.50347 9.59966 4.34504 7.99113 4.65372 6.43928C4.9624 4.88743 5.72433 3.46197 6.84315 2.34315C7.96197 1.22433 9.38743 0.462403 10.9393 0.153721C12.4911 -0.15496 14.0997 0.00346625 15.5615 0.608967C17.0233 1.21447 18.2727 2.23985 19.1518 3.55544C20.0308 4.87103 20.5 6.41775 20.5 8C20.4976 10.121 19.654 12.1545 18.1542 13.6542C16.6545 15.154 14.621 15.9976 12.5 16ZM12.5 18C10.3334 17.999 8.22645 17.2901 6.5 15.981V21.5C6.5 21.971 6.63301 22.4323 6.88374 22.831C7.13446 23.2296 7.49269 23.5494 7.91717 23.7534C8.34164 23.9573 8.81511 24.0373 9.28303 23.984C9.75095 23.9307 10.1943 23.7463 10.562 23.452L12.188 22.152C12.2766 22.0813 12.3866 22.0427 12.5 22.0427C12.6134 22.0427 12.7234 22.0813 12.812 22.152L14.438 23.452C14.8057 23.7463 15.2491 23.9307 15.717 23.984C16.1849 24.0373 16.6584 23.9573 17.0828 23.7534C17.5073 23.5494 17.8656 23.2296 18.1163 22.831C18.367 22.4323 18.5 21.971 18.5 21.5V15.981C16.7735 17.2899 14.6666 17.9989 12.5 18Z" fill="white"/>
</g>
<defs>
<clipPath id="clip0_893_5156">
<rect width="24" height="24" fill="white" transform="translate(0.5)"/>
</clipPath>
</defs>
</svg>
