<svg width="40" height="43" viewBox="0 0 40 43" fill="none" xmlns="http://www.w3.org/2000/svg">
<g opacity="0.25" filter="url(#filter0_f_939_13604)">
<rect x="6.02734" y="20" width="27.2489" height="17.0306" rx="8.51528" fill="url(#paint0_linear_939_13604)"/>
</g>
<rect x="5.19922" y="5.19995" width="29.5196" height="29.5196" rx="14.7598" fill="url(#paint1_linear_939_13604)"/>
<g clip-path="url(#clip0_939_13604)" filter="url(#filter1_i_939_13604)">
<path d="M28.7207 14.1841C28.1385 14.4349 27.5263 14.6095 26.8995 14.7037C27.1925 14.6534 27.6238 14.1254 27.7954 13.9117C28.0562 13.5893 28.255 13.2213 28.3816 12.8263C28.3816 12.797 28.4109 12.7551 28.3816 12.7341C28.3668 12.7261 28.3503 12.7218 28.3334 12.7218C28.3166 12.7218 28.3001 12.7261 28.2853 12.7341C27.6046 13.1031 26.8802 13.3847 26.1291 13.5722C26.1029 13.5802 26.0751 13.581 26.0485 13.5743C26.022 13.5677 25.9977 13.5539 25.9784 13.5345C25.9199 13.4648 25.857 13.3991 25.79 13.3376C25.4836 13.0629 25.1361 12.838 24.76 12.6713C24.2524 12.4628 23.7041 12.3726 23.1565 12.4073C22.6251 12.4409 22.1064 12.5835 21.6325 12.8263C21.1658 13.0823 20.7557 13.4301 20.4267 13.8488C20.0807 14.2797 19.8308 14.7798 19.694 15.3155C19.5812 15.825 19.5684 16.3516 19.6563 16.866C19.6563 16.954 19.6563 16.9665 19.581 16.954C16.5958 16.514 14.1465 15.4538 12.1452 13.1783C12.0573 13.0778 12.0113 13.0778 11.9401 13.1783C11.0692 14.5025 11.4921 16.5978 12.5807 17.6328C12.7272 17.7711 12.8779 17.9052 13.037 18.0309C12.5379 17.9955 12.051 17.8601 11.6051 17.6328C11.5214 17.5784 11.4753 17.6077 11.4712 17.7083C11.4593 17.8477 11.4593 17.9879 11.4712 18.1273C11.5585 18.7955 11.8216 19.4285 12.2336 19.9616C12.6455 20.4947 13.1915 20.9087 13.8158 21.1613C13.9679 21.2265 14.1265 21.2756 14.2889 21.3079C13.8268 21.399 13.3529 21.4131 12.8863 21.3498C12.7858 21.3289 12.7481 21.3833 12.7858 21.4797C13.4013 23.1559 14.7369 23.6672 15.7166 23.9521C15.8505 23.9731 15.9845 23.9731 16.1352 24.0066C16.1352 24.0066 16.1352 24.0066 16.1101 24.0317C15.8212 24.5598 14.6531 24.9159 14.1172 25.1003C13.139 25.452 12.0961 25.5864 11.0609 25.4942C10.8976 25.4691 10.8599 25.4733 10.818 25.4942C10.7762 25.5152 10.818 25.5613 10.8641 25.6032C11.0734 25.7415 11.2828 25.863 11.5005 25.9803C12.1486 26.3342 12.8338 26.6152 13.5436 26.8184C17.2196 27.8325 21.3562 27.0866 24.1153 24.3418C26.284 22.1879 27.046 19.2169 27.046 16.2416C27.046 16.1284 27.1842 16.0614 27.2637 16.0027C27.8124 15.5748 28.2961 15.0695 28.6998 14.5025C28.7697 14.418 28.8055 14.3104 28.8003 14.2008C28.8003 14.138 28.8003 14.1505 28.7207 14.1841Z" fill="white"/>
</g>
<defs>
<filter id="filter0_f_939_13604" x="0.567344" y="14.54" width="38.169" height="27.9505" filterUnits="userSpaceOnUse" color-interpolation-filters="sRGB">
<feFlood flood-opacity="0" result="BackgroundImageFix"/>
<feBlend mode="normal" in="SourceGraphic" in2="BackgroundImageFix" result="shape"/>
<feGaussianBlur stdDeviation="2.73" result="effect1_foregroundBlur_939_13604"/>
</filter>
<filter id="filter1_i_939_13604" x="10.8008" y="10.8" width="18" height="18.5" filterUnits="userSpaceOnUse" color-interpolation-filters="sRGB">
<feFlood flood-opacity="0" result="BackgroundImageFix"/>
<feBlend mode="normal" in="SourceGraphic" in2="BackgroundImageFix" result="shape"/>
<feColorMatrix in="SourceAlpha" type="matrix" values="0 0 0 0 0 0 0 0 0 0 0 0 0 0 0 0 0 0 127 0" result="hardAlpha"/>
<feOffset dy="0.5"/>
<feGaussianBlur stdDeviation="1.25"/>
<feComposite in2="hardAlpha" operator="arithmetic" k2="-1" k3="1"/>
<feColorMatrix type="matrix" values="0 0 0 0 0 0 0 0 0 0 0 0 0 0 0 0 0 0 0.1 0"/>
<feBlend mode="normal" in2="shape" result="effect1_innerShadow_939_13604"/>
</filter>
<linearGradient id="paint0_linear_939_13604" x1="6.58119" y1="20" x2="18.5902" y2="44.0558" gradientUnits="userSpaceOnUse">
<stop stop-color="#00A2F4"/>
<stop offset="1" stop-color="#05ABFF"/>
</linearGradient>
<linearGradient id="paint1_linear_939_13604" x1="5.79922" y1="5.19995" x2="31.1992" y2="37" gradientUnits="userSpaceOnUse">
<stop stop-color="#0CA8F7"/>
<stop offset="1" stop-color="#0096E1"/>
</linearGradient>
<clipPath id="clip0_939_13604">
<rect width="18" height="18" fill="white" transform="translate(10.8008 10.8)"/>
</clipPath>
</defs>
</svg>
